# This file uses centimeters as units for non-parametric coordinates.

mtllib Paintings.mtl
g default
v -0.646361 1.200113 1.261247
v -0.646361 1.888475 1.261249
v -0.646358 1.888475 0.572883
v -0.646358 1.200113 0.572885
v -0.624846 1.200111 1.261247
v -0.624846 1.888481 1.261249
v -0.624847 1.888481 0.572883
v -0.624847 1.200111 0.572885
v -0.624846 1.205269 1.256081
v -0.624848 1.205269 0.578045
v -0.624848 1.883308 0.578046
v -0.624846 1.883308 1.256078
v -0.627353 1.205269 1.256081
v -0.627354 1.205269 0.578045
v -0.627354 1.883293 0.578046
v -0.627353 1.883293 1.256078
v -0.627353 1.207283 1.254077
v -0.627354 1.207283 0.580051
v -0.627354 1.881294 0.580053
v -0.627353 1.881294 1.254076
v -0.624915 1.207283 1.254077
v -0.624916 1.207283 0.580051
v -0.624916 1.881310 0.580053
v -0.624915 1.881310 1.254076
v -0.646355 1.200113 1.999780
v -0.646355 1.888475 1.999782
v -0.646356 1.888475 1.311428
v -0.646356 1.200113 1.311426
v -0.624848 1.200111 1.999780
v -0.624848 1.888481 1.999782
v -0.624848 1.888481 1.311428
v -0.624848 1.200111 1.311426
v -0.624847 1.205269 1.994621
v -0.624847 1.205269 1.316597
v -0.624847 1.883308 1.316602
v -0.624847 1.883308 1.994626
v -0.627353 1.205269 1.994621
v -0.627353 1.205269 1.316597
v -0.627353 1.883293 1.316602
v -0.627353 1.883293 1.994626
v -0.627353 1.207283 1.992633
v -0.627353 1.207283 1.318607
v -0.627353 1.881294 1.318605
v -0.627353 1.881294 1.992632
v -0.624916 1.207283 1.992633
v -0.624915 1.207283 1.318607
v -0.624915 1.881310 1.318605
v -0.624916 1.881310 1.992632
v -0.646361 1.200113 1.261247
v -0.646361 1.888475 1.261249
v -0.646358 1.888475 0.572883
v -0.646358 1.200113 0.572885
v -0.624846 1.200111 1.261247
v -0.624846 1.888481 1.261249
v -0.624847 1.888481 0.572883
v -0.624847 1.200111 0.572885
v -0.624846 1.205269 1.256081
v -0.624848 1.205269 0.578045
v -0.624848 1.883308 0.578046
v -0.624846 1.883308 1.256078
v -0.627353 1.205269 1.256081
v -0.627354 1.205269 0.578045
v -0.627354 1.883293 0.578046
v -0.627353 1.883293 1.256078
v -0.627353 1.207283 1.254077
v -0.627354 1.207283 0.580051
v -0.627354 1.881294 0.580053
v -0.627353 1.881294 1.254076
v -0.624915 1.207283 1.254077
v -0.624916 1.207283 0.580051
v -0.624916 1.881310 0.580053
v -0.624915 1.881310 1.254076
v -0.646355 1.200113 1.999780
v -0.646355 1.888475 1.999782
v -0.646356 1.888475 1.311428
v -0.646356 1.200113 1.311426
v -0.624848 1.200111 1.999780
v -0.624848 1.888481 1.999782
v -0.624848 1.888481 1.311428
v -0.624848 1.200111 1.311426
v -0.624847 1.205269 1.994621
v -0.624847 1.205269 1.316597
v -0.624847 1.883308 1.316602
v -0.624847 1.883308 1.994626
v -0.627353 1.205269 1.994621
v -0.627353 1.205269 1.316597
v -0.627353 1.883293 1.316602
v -0.627353 1.883293 1.994626
v -0.627353 1.207283 1.992633
v -0.627353 1.207283 1.318607
v -0.627353 1.881294 1.318605
v -0.627353 1.881294 1.992632
v -0.624916 1.207283 1.992633
v -0.624915 1.207283 1.318607
v -0.624915 1.881310 1.318605
v -0.624916 1.881310 1.992632
vt 0.000000 0.000000
vt 1.000000 0.000000
vt 1.000000 1.000000
vt 0.000000 1.000000
vt 0.000000 0.000000
vt 1.000000 0.000000
vt 1.000000 1.000000
vt 0.000000 1.000000
vt 0.000000 0.000000
vt 1.000000 0.000000
vt 1.000000 1.000000
vt 0.000000 1.000000
vt 0.000000 0.000000
vt 1.000000 0.000000
vt 1.000000 1.000000
vt 0.000000 1.000000
vn -0.000000 -0.000000 1.000000
vn -0.000000 -0.000000 1.000000
vn -0.000000 -0.000000 1.000000
vn -0.000000 -0.000000 1.000000
vn -0.000000 1.000000 -0.000000
vn -0.000000 1.000000 -0.000000
vn -0.000000 1.000000 -0.000000
vn -0.000000 1.000000 -0.000000
vn 0.000000 0.000000 -1.000000
vn 0.000000 0.000000 -1.000000
vn 0.000000 0.000000 -1.000000
vn 0.000000 0.000000 -1.000000
vn 0.000000 -1.000000 0.000000
vn 0.000000 -1.000000 0.000000
vn 0.000000 -1.000000 0.000000
vn 0.000000 -1.000000 0.000000
vn 1.000000 0.000000 0.000000
vn 1.000000 0.000000 0.000000
vn 1.000000 0.000000 0.000000
vn 1.000000 0.000000 0.000000
vn 1.000000 0.000000 0.000000
vn 1.000000 0.000000 0.000000
vn 1.000000 0.000000 0.000000
vn 1.000000 0.000000 0.000000
vn 1.000000 0.000000 0.000000
vn 1.000000 0.000000 0.000000
vn 1.000000 0.000000 0.000000
vn 1.000000 0.000000 0.000000
vn 1.000000 0.000000 0.000000
vn 1.000000 0.000000 0.000000
vn 1.000000 0.000000 0.000000
vn 1.000000 0.000000 0.000000
vn 0.000000 0.000000 -1.000000
vn 0.000000 0.000000 -1.000000
vn 0.000000 0.000000 -1.000000
vn 0.000000 0.000000 -1.000000
vn -0.000000 1.000000 -0.000000
vn -0.000000 1.000000 -0.000000
vn -0.000000 1.000000 -0.000000
vn -0.000000 1.000000 -0.000000
vn -0.000000 -0.000000 1.000000
vn -0.000000 -0.000000 1.000000
vn -0.000000 -0.000000 1.000000
vn -0.000000 -0.000000 1.000000
vn 0.000000 -1.000000 0.000000
vn 0.000000 -1.000000 0.000000
vn 0.000000 -1.000000 0.000000
vn 0.000000 -1.000000 0.000000
vn -0.000000 -0.000000 1.000000
vn -0.000000 -0.000000 1.000000
vn -0.000000 -0.000000 1.000000
vn -0.000000 -0.000000 1.000000
vn -0.000000 1.000000 -0.000000
vn -0.000000 1.000000 -0.000000
vn -0.000000 1.000000 -0.000000
vn -0.000000 1.000000 -0.000000
vn 0.000000 0.000000 -1.000000
vn 0.000000 0.000000 -1.000000
vn 0.000000 0.000000 -1.000000
vn 0.000000 0.000000 -1.000000
vn 0.000000 -1.000000 0.000000
vn 0.000000 -1.000000 0.000000
vn 0.000000 -1.000000 0.000000
vn 0.000000 -1.000000 0.000000
vn 1.000000 0.000000 0.000000
vn 1.000000 0.000000 0.000000
vn 1.000000 0.000000 0.000000
vn 1.000000 0.000000 0.000000
vn 1.000000 0.000000 0.000000
vn 1.000000 0.000000 0.000000
vn 1.000000 0.000000 0.000000
vn 1.000000 0.000000 0.000000
vn 1.000000 0.000000 0.000000
vn 1.000000 0.000000 0.000000
vn 1.000000 0.000000 0.000000
vn 1.000000 0.000000 0.000000
vn 1.000000 0.000000 0.000000
vn 1.000000 0.000000 0.000000
vn 1.000000 0.000000 0.000000
vn 1.000000 0.000000 0.000000
vn 0.000000 0.000000 -1.000000
vn 0.000000 0.000000 -1.000000
vn 0.000000 0.000000 -1.000000
vn 0.000000 0.000000 -1.000000
vn -0.000000 1.000000 -0.000000
vn -0.000000 1.000000 -0.000000
vn -0.000000 1.000000 -0.000000
vn -0.000000 1.000000 -0.000000
vn -0.000000 -0.000000 1.000000
vn -0.000000 -0.000000 1.000000
vn -0.000000 -0.000000 1.000000
vn -0.000000 -0.000000 1.000000
vn 0.000000 -1.000000 0.000000
vn 0.000000 -1.000000 0.000000
vn 0.000000 -1.000000 0.000000
vn 0.000000 -1.000000 0.000000
vn -0.000000 -0.000000 1.000000
vn -0.000000 -0.000000 1.000000
vn -0.000000 -0.000000 1.000000
vn -0.000000 -0.000000 1.000000
vn -0.000000 1.000000 -0.000000
vn -0.000000 1.000000 -0.000000
vn -0.000000 1.000000 -0.000000
vn -0.000000 1.000000 -0.000000
vn 0.000000 0.000000 -1.000000
vn 0.000000 0.000000 -1.000000
vn 0.000000 0.000000 -1.000000
vn 0.000000 0.000000 -1.000000
vn 0.000000 -1.000000 0.000000
vn 0.000000 -1.000000 0.000000
vn 0.000000 -1.000000 0.000000
vn 0.000000 -1.000000 0.000000
vn 1.000000 0.000000 0.000000
vn 1.000000 0.000000 0.000000
vn 1.000000 0.000000 0.000000
vn 1.000000 0.000000 0.000000
vn 1.000000 0.000000 0.000000
vn 1.000000 0.000000 0.000000
vn 1.000000 0.000000 0.000000
vn 1.000000 0.000000 0.000000
vn 1.000000 0.000000 0.000000
vn 1.000000 0.000000 0.000000
vn 1.000000 0.000000 0.000000
vn 1.000000 0.000000 0.000000
vn 1.000000 0.000000 0.000000
vn 1.000000 0.000000 0.000000
vn 1.000000 0.000000 0.000000
vn 1.000000 0.000000 0.000000
vn 0.000000 0.000000 -1.000000
vn 0.000000 0.000000 -1.000000
vn 0.000000 0.000000 -1.000000
vn 0.000000 0.000000 -1.000000
vn -0.000000 1.000000 -0.000000
vn -0.000000 1.000000 -0.000000
vn -0.000000 1.000000 -0.000000
vn -0.000000 1.000000 -0.000000
vn -0.000000 -0.000000 1.000000
vn -0.000000 -0.000000 1.000000
vn -0.000000 -0.000000 1.000000
vn -0.000000 -0.000000 1.000000
vn 0.000000 -1.000000 0.000000
vn 0.000000 -1.000000 0.000000
vn 0.000000 -1.000000 0.000000
vn 0.000000 -1.000000 0.000000
vn -0.000000 -0.000000 1.000000
vn -0.000000 -0.000000 1.000000
vn -0.000000 -0.000000 1.000000
vn -0.000000 -0.000000 1.000000
vn -0.000000 1.000000 -0.000000
vn -0.000000 1.000000 -0.000000
vn -0.000000 1.000000 -0.000000
vn -0.000000 1.000000 -0.000000
vn 0.000000 0.000000 -1.000000
vn 0.000000 0.000000 -1.000000
vn 0.000000 0.000000 -1.000000
vn 0.000000 0.000000 -1.000000
vn 0.000000 -1.000000 0.000000
vn 0.000000 -1.000000 0.000000
vn 0.000000 -1.000000 0.000000
vn 0.000000 -1.000000 0.000000
vn 1.000000 0.000000 0.000000
vn 1.000000 0.000000 0.000000
vn 1.000000 0.000000 0.000000
vn 1.000000 0.000000 0.000000
vn 1.000000 0.000000 0.000000
vn 1.000000 0.000000 0.000000
vn 1.000000 0.000000 0.000000
vn 1.000000 0.000000 0.000000
vn 1.000000 0.000000 0.000000
vn 1.000000 0.000000 0.000000
vn 1.000000 0.000000 0.000000
vn 1.000000 0.000000 0.000000
vn 1.000000 0.000000 0.000000
vn 1.000000 0.000000 0.000000
vn 1.000000 0.000000 0.000000
vn 1.000000 0.000000 0.000000
vn 0.000000 0.000000 -1.000000
vn 0.000000 0.000000 -1.000000
vn 0.000000 0.000000 -1.000000
vn 0.000000 0.000000 -1.000000
vn -0.000000 1.000000 -0.000000
vn -0.000000 1.000000 -0.000000
vn -0.000000 1.000000 -0.000000
vn -0.000000 1.000000 -0.000000
vn -0.000000 -0.000000 1.000000
vn -0.000000 -0.000000 1.000000
vn -0.000000 -0.000000 1.000000
vn -0.000000 -0.000000 1.000000
vn 0.000000 -1.000000 0.000000
vn 0.000000 -1.000000 0.000000
vn 0.000000 -1.000000 0.000000
vn 0.000000 -1.000000 0.000000
vn 1.000000 0.000000 0.000000
vn 1.000000 0.000000 0.000000
vn 1.000000 0.000000 0.000000
vn 1.000000 0.000000 0.000000
vn 1.000000 0.000000 0.000000
vn 1.000000 0.000000 0.000000
vn 1.000000 0.000000 0.000000
vn 1.000000 0.000000 0.000000
vn 1.000000 0.000000 0.000000
vn 1.000000 0.000000 0.000000
vn 1.000000 0.000000 0.000000
vn 1.000000 0.000000 0.000000
vn 1.000000 0.000000 0.000000
vn 1.000000 0.000000 0.000000
vn 1.000000 0.000000 0.000000
vn 1.000000 0.000000 0.000000
vn 1.000000 0.000000 0.000000
vn 1.000000 0.000000 0.000000
vn 1.000000 0.000000 0.000000
vn 1.000000 0.000000 0.000000
vn 1.000000 0.000000 0.000000
vn 1.000000 0.000000 0.000000
vn 1.000000 0.000000 0.000000
vn 1.000000 0.000000 0.000000
vn 1.000000 0.000000 0.000000
vn 1.000000 0.000000 0.000000
vn 1.000000 0.000000 0.000000
vn 1.000000 0.000000 0.000000
vn 1.000000 0.000000 0.000000
vn 1.000000 0.000000 0.000000
vn 1.000000 0.000000 0.000000
vn 1.000000 0.000000 0.000000
vn 1.000000 0.000000 0.000000
vn 1.000000 0.000000 0.000000
vn 1.000000 0.000000 0.000000
vn 1.000000 0.000000 0.000000
vn 1.000000 0.000000 0.000000
vn 1.000000 0.000000 0.000000
vn 1.000000 0.000000 0.000000
vn 1.000000 0.000000 0.000000
vn 1.000000 0.000000 0.000000
vn 1.000000 0.000000 0.000000
vn 1.000000 0.000000 0.000000
vn 1.000000 0.000000 0.000000
vn 1.000000 0.000000 0.000000
vn 1.000000 0.000000 0.000000
vn 1.000000 0.000000 0.000000
vn 1.000000 0.000000 0.000000
vn 1.000000 0.000000 0.000000
vn 1.000000 0.000000 0.000000
vn 1.000000 0.000000 0.000000
vn 1.000000 0.000000 0.000000
vn 1.000000 0.000000 0.000000
vn 1.000000 0.000000 0.000000
vn 1.000000 0.000000 0.000000
vn 1.000000 0.000000 0.000000
vn 1.000000 0.000000 0.000000
vn 1.000000 0.000000 0.000000
vn 1.000000 0.000000 0.000000
vn 1.000000 0.000000 0.000000
vn 1.000000 0.000000 0.000000
vn 1.000000 0.000000 0.000000
vn 1.000000 0.000000 0.000000
vn 1.000000 0.000000 0.000000
vn 1.000000 0.000000 0.000000
vn 1.000000 0.000000 0.000000
vn 1.000000 0.000000 0.000000
vn 1.000000 0.000000 0.000000
vn 1.000000 0.000000 0.000000
vn 1.000000 0.000000 0.000000
vn 1.000000 0.000000 0.000000
vn 1.000000 0.000000 0.000000
vn 1.000000 0.000000 0.000000
vn 1.000000 0.000000 0.000000
vn 1.000000 0.000000 0.000000
vn 1.000000 0.000000 0.000000
vn 1.000000 0.000000 0.000000
vn 1.000000 0.000000 0.000000
vn 1.000000 0.000000 0.000000
vn 1.000000 0.000000 0.000000
s off
g Paintings
usemtl initialShadingGroup
f 5/1/1 6/2/2 2/3/3 1/4/4
f 6/5/5 7/6/6 3/7/7 2/8/8
f 7/9/9 8/10/10 4/11/11 3/12/12
f 8/13/13 5/14/14 1/15/15 4/16/16
f 6//17 5//18 9//19 12//20
f 5//21 8//22 10//23 9//24
f 8//25 7//26 11//27 10//28
f 7//29 6//30 12//31 11//32
f 12//33 9//34 13//35 16//36
f 9//37 10//38 14//39 13//40
f 10//41 11//42 15//43 14//44
f 11//45 12//46 16//47 15//48
f 29//49 30//50 26//51 25//52
f 30//53 31//54 27//55 26//56
f 31//57 32//58 28//59 27//60
f 32//61 29//62 25//63 28//64
f 30//65 29//66 33//67 36//68
f 29//69 32//70 34//71 33//72
f 32//73 31//74 35//75 34//76
f 31//77 30//78 36//79 35//80
f 36//81 33//82 37//83 40//84
f 33//85 34//86 38//87 37//88
f 34//89 35//90 39//91 38//92
f 35//93 36//94 40//95 39//96
f 53//97 54//98 50//99 49//100
f 54//101 55//102 51//103 50//104
f 55//105 56//106 52//107 51//108
f 56//109 53//110 49//111 52//112
f 54//113 53//114 57//115 60//116
f 53//117 56//118 58//119 57//120
f 56//121 55//122 59//123 58//124
f 55//125 54//126 60//127 59//128
f 60//129 57//130 61//131 64//132
f 57//133 58//134 62//135 61//136
f 58//137 59//138 63//139 62//140
f 59//141 60//142 64//143 63//144
f 77//145 78//146 74//147 73//148
f 78//149 79//150 75//151 74//152
f 79//153 80//154 76//155 75//156
f 80//157 77//158 73//159 76//160
f 78//161 77//162 81//163 84//164
f 77//165 80//166 82//167 81//168
f 80//169 79//170 83//171 82//172
f 79//173 78//174 84//175 83//176
f 84//177 81//178 85//179 88//180
f 81//181 82//182 86//183 85//184
f 82//185 83//186 87//187 86//188
f 83//189 84//190 88//191 87//192
f 16//193 13//194 17//195 20//196
f 13//197 14//198 18//199 17//200
f 14//201 15//202 19//203 18//204
f 15//205 16//206 20//207 19//208
f 40//209 37//210 41//211 44//212
f 37//213 38//214 42//215 41//216
f 38//217 39//218 43//219 42//220
f 39//221 40//222 44//223 43//224
f 64//225 61//226 65//227 68//228
f 61//229 62//230 66//231 65//232
f 62//233 63//234 67//235 66//236
f 63//237 64//238 68//239 67//240
f 88//241 85//242 89//243 92//244
f 85//245 86//246 90//247 89//248
f 86//249 87//250 91//251 90//252
f 87//253 88//254 92//255 91//256
f 21//257 22//258 23//259 24//260
f 69//261 70//262 71//263 72//264
f 45//265 46//266 47//267 48//268
f 93//269 94//270 95//271 96//272
