# This file uses centimeters as units for non-parametric coordinates.

mtllib pictureframes.mtl
g default
v -0.646355 1.200113 1.999780
v -0.646355 1.888475 1.999782
v -0.646356 1.888475 1.311428
v -0.646356 1.200113 1.311426
v -0.624848 1.200111 1.999780
v -0.624848 1.888481 1.999782
v -0.624848 1.888481 1.311428
v -0.624848 1.200111 1.311426
v -0.624847 1.205269 1.994621
v -0.624847 1.205269 1.316597
v -0.624847 1.883308 1.316602
v -0.624847 1.883308 1.994626
v -0.627353 1.205269 1.994621
v -0.627353 1.205269 1.316597
v -0.627353 1.883293 1.316602
v -0.627353 1.883293 1.994626
v -0.627353 1.207283 1.992633
v -0.627353 1.207283 1.318607
v -0.627353 1.881294 1.318605
v -0.627353 1.881294 1.992632
v -0.646355 1.200113 1.999780
v -0.646355 1.888475 1.999782
v -0.646356 1.888475 1.311428
v -0.646356 1.200113 1.311426
v -0.624848 1.200111 1.999780
v -0.624848 1.888481 1.999782
v -0.624848 1.888481 1.311428
v -0.624848 1.200111 1.311426
v -0.624847 1.205269 1.994621
v -0.624847 1.205269 1.316597
v -0.624847 1.883308 1.316602
v -0.624847 1.883308 1.994626
v -0.627353 1.205269 1.994621
v -0.627353 1.205269 1.316597
v -0.627353 1.883293 1.316602
v -0.627353 1.883293 1.994626
v -0.627353 1.207283 1.992633
v -0.627353 1.207283 1.318607
v -0.627353 1.881294 1.318605
v -0.627353 1.881294 1.992632
v -0.624916 1.207283 1.992633
v -0.624915 1.207283 1.318607
v -0.624915 1.881310 1.318605
v -0.624916 1.881310 1.992632
v -0.646361 1.200113 1.261247
v -0.646361 1.888475 1.261249
v -0.646358 1.888475 0.572883
v -0.646358 1.200113 0.572885
v -0.624846 1.200111 1.261247
v -0.624846 1.888481 1.261249
v -0.624847 1.888481 0.572883
v -0.624847 1.200111 0.572885
v -0.624846 1.205269 1.256081
v -0.624848 1.205269 0.578045
v -0.624848 1.883308 0.578046
v -0.624846 1.883308 1.256078
v -0.627353 1.205269 1.256081
v -0.627354 1.205269 0.578045
v -0.627354 1.883293 0.578046
v -0.627353 1.883293 1.256078
v -0.627353 1.207283 1.254077
v -0.627354 1.207283 0.580051
v -0.627354 1.881294 0.580053
v -0.627353 1.881294 1.254076
v -0.646361 1.200113 1.261247
v -0.646361 1.888475 1.261249
v -0.646358 1.888475 0.572883
v -0.646358 1.200113 0.572885
v -0.624846 1.200111 1.261247
v -0.624846 1.888481 1.261249
v -0.624847 1.888481 0.572883
v -0.624847 1.200111 0.572885
v -0.624846 1.205269 1.256081
v -0.624848 1.205269 0.578045
v -0.624848 1.883308 0.578046
v -0.624846 1.883308 1.256078
v -0.627353 1.205269 1.256081
v -0.627354 1.205269 0.578045
v -0.627354 1.883293 0.578046
v -0.627353 1.883293 1.256078
v -0.627353 1.207283 1.254077
v -0.627354 1.207283 0.580051
v -0.627354 1.881294 0.580053
v -0.627353 1.881294 1.254076
v -0.624915 1.207283 1.254077
v -0.624916 1.207283 0.580051
v -0.624916 1.881310 0.580053
v -0.624915 1.881310 1.254076
vt 0.011275 -0.593109
vt 0.011275 -0.058135
vt -0.005439 -0.058139
vt -0.005439 -0.593107
vt 0.948154 -0.049167
vt 0.948154 0.485795
vt 0.931439 0.485795
vt 0.931440 -0.049167
vt 0.041928 -0.593109
vt 0.041928 -0.058135
vt 0.025213 -0.058136
vt 0.025213 -0.593104
vt 0.917654 -0.049167
vt 0.917654 0.485795
vt 0.900940 0.485795
vt 0.900939 -0.049167
vt 0.055865 -0.058135
vt 0.055867 -0.593109
vt 0.059876 -0.589100
vt 0.059872 -0.062155
vt 0.590829 -0.593109
vt 0.586810 -0.589100
vt 0.590827 -0.058135
vt 0.586806 -0.062155
vt 0.794689 -0.049167
vt 0.794689 0.477779
vt 0.792741 0.477779
vt 0.792741 -0.049155
vt 0.469430 0.486744
vt 0.469430 1.013678
vt 0.467482 1.013678
vt 0.467482 0.486744
vt 0.778956 -0.049167
vt 0.778956 0.477779
vt 0.777009 0.477767
vt 0.777009 -0.049167
vt 0.486945 0.486744
vt 0.486945 1.013678
vt 0.484998 1.013678
vt 0.484998 0.486744
vt -0.091990 1.013682
vt -0.618924 1.013679
vt -0.617359 1.012133
vt -0.093544 1.012133
vt -0.618924 0.486745
vt -0.617359 0.488307
vt -0.091990 0.486748
vt -0.093544 0.488305
vt 1.237368 -0.593109
vt 1.237368 -0.058135
vt 1.220654 -0.058139
vt 1.220654 -0.593107
vt 0.887154 -0.049167
vt 0.887154 0.485795
vt 0.870439 0.485795
vt 0.870440 -0.049167
vt 1.268021 -0.593109
vt 1.268021 -0.058135
vt 1.251306 -0.058136
vt 1.251306 -0.593104
vt 0.856654 -0.049167
vt 0.856654 0.485795
vt 0.839940 0.485795
vt 0.839939 -0.049167
vt 1.083961 0.485808
vt 1.083962 -0.049167
vt 1.087971 -0.045158
vt 1.087968 0.481787
vt 1.618924 -0.049167
vt 1.614905 -0.045158
vt 1.618923 0.485808
vt 1.614901 0.481787
vt 0.731759 -0.049167
vt 0.731759 0.477779
vt 0.729811 0.477779
vt 0.729811 -0.049155
vt 0.504461 0.486744
vt 0.504461 1.013678
vt 0.502513 1.013678
vt 0.502513 0.486744
vt 0.716026 -0.049167
vt 0.716026 0.477779
vt 0.714079 0.477767
vt 0.714079 -0.049167
vt 0.521977 0.486744
vt 0.521977 1.013678
vt 0.520029 1.013678
vt 0.520029 0.486744
vt 0.451432 1.013682
vt -0.075502 1.013679
vt -0.073937 1.012133
vt 0.449878 1.012133
vt -0.075502 0.486745
vt -0.073937 0.488307
vt 0.451432 0.486748
vt 0.449878 0.488305
vt 0.000000 0.000000
vt 0.999997 0.000000
vt 1.000000 1.000000
vt 0.000001 1.000000
vt -0.602203 -0.593109
vt -0.602203 -0.058135
vt -0.618924 -0.058139
vt -0.618924 -0.593107
vt 1.070176 -0.049167
vt 1.070175 0.485804
vt 1.053458 0.485804
vt 1.053455 -0.049167
vt -0.571116 -0.593109
vt -0.571116 -0.058135
vt -0.587834 -0.058136
vt -0.587834 -0.593104
vt 1.009164 -0.049167
vt 1.009165 0.485802
vt 0.992444 0.485802
vt 0.992447 -0.049167
vt -0.557181 -0.058135
vt -0.557180 -0.593109
vt -0.553165 -0.589100
vt -0.553163 -0.062155
vt -0.022212 -0.593109
vt -0.026222 -0.589100
vt -0.022210 -0.058135
vt -0.026223 -0.062155
vt 0.826154 -0.049167
vt 0.826154 0.477779
vt 0.824206 0.477779
vt 0.824206 -0.049155
vt 0.700294 -0.049167
vt 0.700292 0.477776
vt 0.698345 0.477776
vt 0.698345 -0.049167
vt 0.810421 -0.049167
vt 0.810421 0.477779
vt 0.808474 0.477767
vt 0.808474 -0.049167
vt -0.412613 -0.049167
vt -0.412611 0.477773
vt -0.414560 0.477773
vt -0.414561 -0.049167
vt 0.668826 0.477774
vt 0.141892 0.477776
vt 0.143457 0.476219
vt 0.667272 0.476218
vt 0.141892 -0.049167
vt 0.143457 -0.047608
vt 0.668826 -0.049166
vt 0.667272 -0.047606
vt 0.624328 -0.593109
vt 0.624328 -0.058135
vt 0.607607 -0.058139
vt 0.607607 -0.593107
vt 1.039670 -0.049167
vt 1.039670 0.485804
vt 1.022952 0.485804
vt 1.022950 -0.049167
vt 0.654977 -0.593109
vt 0.654977 -0.058135
vt 0.638259 -0.058136
vt 0.638259 -0.593104
vt 0.978659 -0.049167
vt 0.978660 0.485802
vt 0.961939 0.485802
vt 0.961941 -0.049167
vt 0.668912 -0.058135
vt 0.668913 -0.593109
vt 0.672928 -0.589100
vt 0.672930 -0.062155
vt 1.203882 -0.593109
vt 1.199871 -0.589100
vt 1.203883 -0.058135
vt 1.199870 -0.062155
vt 0.763224 -0.049167
vt 0.763224 0.477779
vt 0.761276 0.477779
vt 0.761276 -0.049155
vt 0.684560 -0.049167
vt 0.684558 0.477776
vt 0.682611 0.477776
vt 0.682611 -0.049167
vt 0.747491 -0.049167
vt 0.747491 0.477779
vt 0.745543 0.477767
vt 0.745543 -0.049167
vt -0.428347 -0.049167
vt -0.428345 0.477773
vt -0.430294 0.477773
vt -0.430295 -0.049167
vt 0.128107 0.477774
vt -0.398827 0.477776
vt -0.397262 0.476219
vt 0.126554 0.476218
vt -0.398827 -0.049167
vt -0.397262 -0.047608
vt 0.128107 -0.049166
vt 0.126554 -0.047606
vt 0.000000 0.000000
vt 1.000000 0.000000
vt 0.999997 1.000000
vt 0.000002 1.000000
vn 0.000000 0.000000 1.000000
vn 0.000000 0.000000 1.000000
vn 0.000000 0.000000 1.000000
vn 0.000000 0.000000 1.000000
vn 0.000000 1.000000 0.000000
vn 0.000000 1.000000 0.000000
vn 0.000000 1.000000 0.000000
vn 0.000000 1.000000 0.000000
vn 0.000000 0.000000 -1.000000
vn 0.000000 0.000000 -1.000000
vn 0.000000 0.000000 -1.000000
vn 0.000000 0.000000 -1.000000
vn 0.000000 -1.000000 0.000000
vn 0.000000 -1.000000 0.000000
vn 0.000000 -1.000000 0.000000
vn 0.000000 -1.000000 0.000000
vn 1.000000 0.000000 0.000000
vn 1.000000 0.000000 0.000000
vn 1.000000 0.000000 0.000000
vn 1.000000 0.000000 0.000000
vn 1.000000 0.000000 0.000000
vn 1.000000 0.000000 0.000000
vn 1.000000 0.000000 0.000000
vn 1.000000 0.000000 0.000000
vn 1.000000 0.000000 0.000000
vn 1.000000 0.000000 0.000000
vn 1.000000 0.000000 0.000000
vn 1.000000 0.000000 0.000000
vn 1.000000 0.000000 0.000000
vn 1.000000 0.000000 0.000000
vn 1.000000 0.000000 0.000000
vn 1.000000 0.000000 0.000000
vn 0.000000 0.000000 -1.000000
vn 0.000000 0.000000 -1.000000
vn 0.000000 0.000000 -1.000000
vn 0.000000 0.000000 -1.000000
vn 0.000000 1.000000 0.000000
vn 0.000000 1.000000 0.000000
vn 0.000000 1.000000 0.000000
vn 0.000000 1.000000 0.000000
vn 0.000000 0.000000 1.000000
vn 0.000000 0.000000 1.000000
vn 0.000000 0.000000 1.000000
vn 0.000000 0.000000 1.000000
vn 0.000000 -1.000000 0.000000
vn 0.000000 -1.000000 0.000000
vn 0.000000 -1.000000 0.000000
vn 0.000000 -1.000000 0.000000
vn 1.000000 0.000000 0.000000
vn 1.000000 0.000000 0.000000
vn 1.000000 0.000000 0.000000
vn 1.000000 0.000000 0.000000
vn 1.000000 0.000000 0.000000
vn 1.000000 0.000000 0.000000
vn 1.000000 0.000000 0.000000
vn 1.000000 0.000000 0.000000
vn 1.000000 0.000000 0.000000
vn 1.000000 0.000000 0.000000
vn 1.000000 0.000000 0.000000
vn 1.000000 0.000000 0.000000
vn 1.000000 0.000000 0.000000
vn 1.000000 0.000000 0.000000
vn 1.000000 0.000000 0.000000
vn 1.000000 0.000000 0.000000
vn 0.000000 0.000000 1.000000
vn 0.000000 0.000000 1.000000
vn 0.000000 0.000000 1.000000
vn 0.000000 0.000000 1.000000
vn 0.000000 1.000000 0.000000
vn 0.000000 1.000000 0.000000
vn 0.000000 1.000000 0.000000
vn 0.000000 1.000000 0.000000
vn 0.000000 0.000000 -1.000000
vn 0.000000 0.000000 -1.000000
vn 0.000000 0.000000 -1.000000
vn 0.000000 0.000000 -1.000000
vn 0.000000 -1.000000 0.000000
vn 0.000000 -1.000000 0.000000
vn 0.000000 -1.000000 0.000000
vn 0.000000 -1.000000 0.000000
vn 1.000000 0.000000 0.000000
vn 1.000000 0.000000 0.000000
vn 1.000000 0.000000 0.000000
vn 1.000000 0.000000 0.000000
vn 1.000000 0.000000 0.000000
vn 1.000000 0.000000 0.000000
vn 1.000000 0.000000 0.000000
vn 1.000000 0.000000 0.000000
vn 1.000000 0.000000 0.000000
vn 1.000000 0.000000 0.000000
vn 1.000000 0.000000 0.000000
vn 1.000000 0.000000 0.000000
vn 1.000000 0.000000 0.000000
vn 1.000000 0.000000 0.000000
vn 1.000000 0.000000 0.000000
vn 1.000000 0.000000 0.000000
vn 0.000000 0.000000 -1.000000
vn 0.000000 0.000000 -1.000000
vn 0.000000 0.000000 -1.000000
vn 0.000000 0.000000 -1.000000
vn 0.000000 1.000000 0.000000
vn 0.000000 1.000000 0.000000
vn 0.000000 1.000000 0.000000
vn 0.000000 1.000000 0.000000
vn 0.000000 0.000000 1.000000
vn 0.000000 0.000000 1.000000
vn 0.000000 0.000000 1.000000
vn 0.000000 0.000000 1.000000
vn 0.000000 -1.000000 0.000000
vn 0.000000 -1.000000 0.000000
vn 0.000000 -1.000000 0.000000
vn 0.000000 -1.000000 0.000000
vn 1.000000 0.000000 0.000000
vn 1.000000 0.000000 0.000000
vn 1.000000 0.000000 0.000000
vn 1.000000 0.000000 0.000000
vn 1.000000 0.000000 0.000000
vn 1.000000 0.000000 0.000000
vn 1.000000 0.000000 0.000000
vn 1.000000 0.000000 0.000000
vn 1.000000 0.000000 0.000000
vn 1.000000 0.000000 0.000000
vn 1.000000 0.000000 0.000000
vn 1.000000 0.000000 0.000000
vn 1.000000 0.000000 0.000000
vn 1.000000 0.000000 0.000000
vn 1.000000 0.000000 0.000000
vn 1.000000 0.000000 0.000000
vn 1.000000 0.000000 0.000000
vn 1.000000 0.000000 0.000000
vn 1.000000 0.000000 0.000000
vn 1.000000 0.000000 0.000000
vn 0.000000 0.000000 1.000000
vn 0.000000 0.000000 1.000000
vn 0.000000 0.000000 1.000000
vn 0.000000 0.000000 1.000000
vn 0.000000 1.000000 0.000000
vn 0.000000 1.000000 0.000000
vn 0.000000 1.000000 0.000000
vn 0.000000 1.000000 0.000000
vn 0.000000 0.000000 -1.000000
vn 0.000000 0.000000 -1.000000
vn 0.000000 0.000000 -1.000000
vn 0.000000 0.000000 -1.000000
vn 0.000000 -1.000000 0.000000
vn 0.000000 -1.000000 0.000000
vn 0.000000 -1.000000 0.000000
vn 0.000000 -1.000000 0.000000
vn 1.000000 0.000000 0.000000
vn 1.000000 0.000000 0.000000
vn 1.000000 0.000000 0.000000
vn 1.000000 0.000000 0.000000
vn 1.000000 0.000000 0.000000
vn 1.000000 0.000000 0.000000
vn 1.000000 0.000000 0.000000
vn 1.000000 0.000000 0.000000
vn 1.000000 0.000000 0.000000
vn 1.000000 0.000000 0.000000
vn 1.000000 0.000000 0.000000
vn 1.000000 0.000000 0.000000
vn 1.000000 0.000000 0.000000
vn 1.000000 0.000000 0.000000
vn 1.000000 0.000000 0.000000
vn 1.000000 0.000000 0.000000
vn 0.000000 0.000000 -1.000000
vn 0.000000 0.000000 -1.000000
vn 0.000000 0.000000 -1.000000
vn 0.000000 0.000000 -1.000000
vn 0.000000 1.000000 0.000000
vn 0.000000 1.000000 0.000000
vn 0.000000 1.000000 0.000000
vn 0.000000 1.000000 0.000000
vn 0.000000 0.000000 1.000000
vn 0.000000 0.000000 1.000000
vn 0.000000 0.000000 1.000000
vn 0.000000 0.000000 1.000000
vn 0.000000 -1.000000 0.000000
vn 0.000000 -1.000000 0.000000
vn 0.000000 -1.000000 0.000000
vn 0.000000 -1.000000 0.000000
vn 1.000000 0.000000 0.000000
vn 1.000000 0.000000 0.000000
vn 1.000000 0.000000 0.000000
vn 1.000000 0.000000 0.000000
vn 1.000000 0.000000 0.000000
vn 1.000000 0.000000 0.000000
vn 1.000000 0.000000 0.000000
vn 1.000000 0.000000 0.000000
vn 1.000000 0.000000 0.000000
vn 1.000000 0.000000 0.000000
vn 1.000000 0.000000 0.000000
vn 1.000000 0.000000 0.000000
vn 1.000000 0.000000 0.000000
vn 1.000000 0.000000 0.000000
vn 1.000000 0.000000 0.000000
vn 1.000000 0.000000 0.000000
vn 0.000000 0.000000 1.000000
vn 0.000000 0.000000 1.000000
vn 0.000000 0.000000 1.000000
vn 0.000000 0.000000 1.000000
vn 0.000000 1.000000 0.000000
vn 0.000000 1.000000 0.000000
vn 0.000000 1.000000 0.000000
vn 0.000000 1.000000 0.000000
vn 0.000000 0.000000 -1.000000
vn 0.000000 0.000000 -1.000000
vn 0.000000 0.000000 -1.000000
vn 0.000000 0.000000 -1.000000
vn 0.000000 -1.000000 0.000000
vn 0.000000 -1.000000 0.000000
vn 0.000000 -1.000000 0.000000
vn 0.000000 -1.000000 0.000000
vn 1.000000 0.000000 0.000000
vn 1.000000 0.000000 0.000000
vn 1.000000 0.000000 0.000000
vn 1.000000 0.000000 0.000000
vn 1.000000 0.000000 0.000000
vn 1.000000 0.000000 0.000000
vn 1.000000 0.000000 0.000000
vn 1.000000 0.000000 0.000000
vn 1.000000 0.000000 0.000000
vn 1.000000 0.000000 0.000000
vn 1.000000 0.000000 0.000000
vn 1.000000 0.000000 0.000000
vn 1.000000 0.000000 0.000000
vn 1.000000 0.000000 0.000000
vn 1.000000 0.000000 0.000000
vn 1.000000 0.000000 0.000000
vn 0.000000 0.000000 -1.000000
vn 0.000000 0.000000 -1.000000
vn 0.000000 0.000000 -1.000000
vn 0.000000 0.000000 -1.000000
vn 0.000000 1.000000 0.000000
vn 0.000000 1.000000 0.000000
vn 0.000000 1.000000 0.000000
vn 0.000000 1.000000 0.000000
vn 0.000000 0.000000 1.000000
vn 0.000000 0.000000 1.000000
vn 0.000000 0.000000 1.000000
vn 0.000000 0.000000 1.000000
vn 0.000000 -1.000000 0.000000
vn 0.000000 -1.000000 0.000000
vn 0.000000 -1.000000 0.000000
vn 0.000000 -1.000000 0.000000
vn 1.000000 0.000000 0.000000
vn 1.000000 0.000000 0.000000
vn 1.000000 0.000000 0.000000
vn 1.000000 0.000000 0.000000
vn 1.000000 0.000000 0.000000
vn 1.000000 0.000000 0.000000
vn 1.000000 0.000000 0.000000
vn 1.000000 0.000000 0.000000
vn 1.000000 0.000000 0.000000
vn 1.000000 0.000000 0.000000
vn 1.000000 0.000000 0.000000
vn 1.000000 0.000000 0.000000
vn 1.000000 0.000000 0.000000
vn 1.000000 0.000000 0.000000
vn 1.000000 0.000000 0.000000
vn 1.000000 0.000000 0.000000
vn 1.000000 0.000000 0.000000
vn 1.000000 0.000000 0.000000
vn 1.000000 0.000000 0.000000
vn 1.000000 0.000000 0.000000
s off
g polySurface9
usemtl blinn1SG
f 5/1/1 6/2/2 2/3/3 1/4/4
f 6/5/5 7/6/6 3/7/7 2/8/8
f 7/9/9 8/10/10 4/11/11 3/12/12
f 8/13/13 5/14/14 1/15/15 4/16/16
f 6/17/17 5/18/18 9/19/19 12/20/20
f 5/18/21 8/21/22 10/22/23 9/19/24
f 8/21/25 7/23/26 11/24/27 10/22/28
f 7/23/29 6/17/30 12/20/31 11/24/32
f 12/25/33 9/26/34 13/27/35 16/28/36
f 9/29/37 10/30/38 14/31/39 13/32/40
f 10/33/41 11/34/42 15/35/43 14/36/44
f 11/37/45 12/38/46 16/39/47 15/40/48
f 16/41/49 13/42/50 17/43/51 20/44/52
f 13/42/53 14/45/54 18/46/55 17/43/56
f 14/45/57 15/47/58 19/48/59 18/46/60
f 15/47/61 16/41/62 20/44/63 19/48/64
usemtl initialShadingGroup1
f 25/49/65 26/50/66 22/51/67 21/52/68
f 26/53/69 27/54/70 23/55/71 22/56/72
f 27/57/73 28/58/74 24/59/75 23/60/76
f 28/61/77 25/62/78 21/63/79 24/64/80
f 26/65/81 25/66/82 29/67/83 32/68/84
f 25/66/85 28/69/86 30/70/87 29/67/88
f 28/69/89 27/71/90 31/72/91 30/70/92
f 27/71/93 26/65/94 32/68/95 31/72/96
f 32/73/97 29/74/98 33/75/99 36/76/100
f 29/77/101 30/78/102 34/79/103 33/80/104
f 30/81/105 31/82/106 35/83/107 34/84/108
f 31/85/109 32/86/110 36/87/111 35/88/112
f 36/89/113 33/90/114 37/91/115 40/92/116
f 33/90/117 34/93/118 38/94/119 37/91/120
f 34/93/121 35/95/122 39/96/123 38/94/124
f 35/95/125 36/89/126 40/92/127 39/96/128
usemtl blinn3SG
f 41/97/129 42/98/130 43/99/131 44/100/132
usemtl blinn1SG
f 49/101/133 50/102/134 46/103/135 45/104/136
f 50/105/137 51/106/138 47/107/139 46/108/140
f 51/109/141 52/110/142 48/111/143 47/112/144
f 52/113/145 49/114/146 45/115/147 48/116/148
f 50/117/149 49/118/150 53/119/151 56/120/152
f 49/118/153 52/121/154 54/122/155 53/119/156
f 52/121/157 51/123/158 55/124/159 54/122/160
f 51/123/161 50/117/162 56/120/163 55/124/164
f 56/125/165 53/126/166 57/127/167 60/128/168
f 53/129/169 54/130/170 58/131/171 57/132/172
f 54/133/173 55/134/174 59/135/175 58/136/176
f 55/137/177 56/138/178 60/139/179 59/140/180
f 60/141/181 57/142/182 61/143/183 64/144/184
f 57/142/185 58/145/186 62/146/187 61/143/188
f 58/145/189 59/147/190 63/148/191 62/146/192
f 59/147/193 60/141/194 64/144/195 63/148/196
usemtl initialShadingGroup1
f 69/149/197 70/150/198 66/151/199 65/152/200
f 70/153/201 71/154/202 67/155/203 66/156/204
f 71/157/205 72/158/206 68/159/207 67/160/208
f 72/161/209 69/162/210 65/163/211 68/164/212
f 70/165/213 69/166/214 73/167/215 76/168/216
f 69/166/217 72/169/218 74/170/219 73/167/220
f 72/169/221 71/171/222 75/172/223 74/170/224
f 71/171/225 70/165/226 76/168/227 75/172/228
f 76/173/229 73/174/230 77/175/231 80/176/232
f 73/177/233 74/178/234 78/179/235 77/180/236
f 74/181/237 75/182/238 79/183/239 78/184/240
f 75/185/241 76/186/242 80/187/243 79/188/244
f 80/189/245 77/190/246 81/191/247 84/192/248
f 77/190/249 78/193/250 82/194/251 81/191/252
f 78/193/253 79/195/254 83/196/255 82/194/256
f 79/195/257 80/189/258 84/192/259 83/196/260
usemtl blinn2SG
f 85/197/261 86/198/262 87/199/263 88/200/264
