# This file uses centimeters as units for non-parametric coordinates.

mtllib balconyWalls.mtl
g default
v 4.097029 0.139994 5.820269
v 5.573661 0.139994 5.820269
v 4.097029 0.963129 5.820269
v 5.573661 0.963129 5.820269
v 4.097029 0.963129 -5.820269
v 5.573661 0.963129 -5.820269
v 4.097029 0.139994 -5.820269
v 5.573661 0.139994 -5.820269
v 4.097029 -0.010006 5.970269
v 5.723661 -0.010006 5.970269
v 5.723661 0.963129 5.970269
v 4.097029 0.963129 5.970269
v 4.097029 0.963129 -5.970269
v 5.723661 0.963129 -5.970269
v 5.723661 -0.010006 -5.970269
v 4.097029 -0.010006 -5.970269
vt -6.184415 -3.871880
vt 6.970317 -3.871880
vt 6.970317 -2.799789
vt -6.184415 -2.799789
vt 6.970318 2.049206
vt 6.970317 2.956043
vt -5.853909 2.956043
vt -5.853910 2.049207
vt 6.805065 0.246036
vt 6.805064 -0.660801
vt 6.970317 -0.826054
vt 6.970317 0.246036
vt -6.019162 -0.660801
vt -6.184415 -0.826054
vt -6.019163 0.246036
vt -6.184414 0.246036
vt 6.970317 -5.750546
vt 6.970318 -3.958507
vt -6.184414 -3.958507
vt -6.184414 -5.750545
vt 3.138308 0.165324
vt -2.138308 0.165324
vt -2.138308 0.834676
vt 3.138308 0.834676
vt 6.805065 -1.075496
vt 6.805065 -2.702284
vt 6.970318 -2.702284
vt 6.970317 -0.910245
vt -6.019162 -1.075496
vt -6.184415 -0.910244
vt -6.019162 -2.702284
vt -6.184414 -2.702283
vt 5.178278 3.048236
vt 6.970316 3.048235
vt 6.970317 4.120326
vt 5.178278 4.120327
vt 5.178278 4.217834
vt 6.970315 4.217833
vt 6.970316 5.289922
vt 5.178278 5.289923
vt 5.343528 6.294266
vt 5.343528 5.387430
vt 6.970315 5.387430
vt 6.970315 6.294266
vt 3.666837 6.702060
vt 3.666837 5.795222
vt 5.293625 5.795219
vt 5.293624 6.702058
vn 0.000000 0.000000 1.000000
vn 0.000000 0.000000 1.000000
vn 0.000000 0.000000 1.000000
vn 0.000000 0.000000 1.000000
vn 0.000000 0.000000 -1.000000
vn 0.000000 0.000000 -1.000000
vn 0.000000 0.000000 -1.000000
vn 0.000000 0.000000 -1.000000
vn 0.000000 -1.000000 0.000000
vn 0.000000 -1.000000 0.000000
vn 0.000000 -1.000000 0.000000
vn 0.000000 -1.000000 0.000000
vn 1.000000 0.000000 0.000000
vn 1.000000 0.000000 0.000000
vn 1.000000 0.000000 0.000000
vn 1.000000 0.000000 0.000000
vn 0.000000 0.000000 -1.000000
vn 0.000000 0.000000 -1.000000
vn 0.000000 0.000000 -1.000000
vn 0.000000 0.000000 -1.000000
vn 0.000000 0.000000 1.000000
vn 0.000000 0.000000 1.000000
vn 0.000000 0.000000 1.000000
vn 0.000000 0.000000 1.000000
vn 0.000000 1.000000 0.000000
vn 0.000000 1.000000 0.000000
vn 0.000000 1.000000 0.000000
vn 0.000000 1.000000 0.000000
vn -1.000000 0.000000 0.000000
vn -1.000000 0.000000 0.000000
vn -1.000000 0.000000 0.000000
vn -1.000000 0.000000 0.000000
vn 0.000000 1.000000 0.000000
vn 0.000000 1.000000 0.000000
vn 0.000000 1.000000 0.000000
vn 0.000000 1.000000 0.000000
vn -1.000000 0.000000 0.000000
vn -1.000000 -0.000000 0.000000
vn -1.000000 -0.000000 0.000000
vn -1.000000 0.000000 0.000000
vn 0.000000 1.000000 -0.000001
vn 0.000000 1.000000 -0.000000
vn 0.000000 1.000000 -0.000000
vn 0.000000 1.000000 -0.000001
vn -1.000000 -0.000000 0.000000
vn -1.000000 0.000000 0.000000
vn -1.000000 0.000000 0.000000
vn -1.000000 -0.000000 0.000000
s off
g polySurface20 pCube24
usemtl blinn7SG
f 9/33/1 10/34/2 11/35/3 12/36/4
f 13/37/5 14/38/6 15/39/7 16/40/8
f 16/17/9 15/18/10 10/19/11 9/20/12
f 10/1/13 15/2/14 14/3/15 11/4/16
f 1/41/17 3/42/18 4/43/19 2/44/20
f 5/45/21 7/46/22 8/47/23 6/48/24
usemtl blinn3SG
f 7/21/25 1/22/26 2/23/27 8/24/28
usemtl blinn7SG
f 2/5/29 4/6/30 6/7/31 8/8/32
s 1
f 4/25/33 3/26/34 12/27/35 11/28/36
s 2
f 3/9/37 1/10/38 9/11/39 12/12/40
s 1
f 5/31/41 6/29/42 14/30/43 13/32/44
s 2
f 7/13/45 5/15/46 13/16/47 16/14/48
f 1/10/38 7/13/45 16/14/48 9/11/39
s 1
f 6/29/42 4/25/33 11/28/36 14/30/43
