# This file uses centimeters as units for non-parametric coordinates.

mtllib balconyRailing.mtl
g default
v 5.633332 0.990766 5.860384
v 5.655568 0.990766 5.860384
v 5.633332 1.077557 5.860384
v 5.655568 1.077557 5.860384
v 5.633332 1.077557 5.820384
v 5.655568 1.077557 5.820384
v 5.633332 0.990766 5.820384
v 5.655568 0.990766 5.820384
v 5.633332 0.990766 4.020000
v 5.655568 0.990766 4.020000
v 5.633332 1.077557 4.020000
v 5.655568 1.077557 4.020000
v 5.633332 1.077557 3.980000
v 5.655568 1.077557 3.980000
v 5.633332 0.990766 3.980000
v 5.655568 0.990766 3.980000
v 5.633332 0.990766 2.020000
v 5.655568 0.990766 2.020000
v 5.633332 1.077557 2.020000
v 5.655568 1.077557 2.020000
v 5.633332 1.077557 1.980000
v 5.655568 1.077557 1.980000
v 5.633332 0.990766 1.980000
v 5.655568 0.990766 1.980000
v 5.633332 0.990766 0.020000
v 5.655568 0.990766 0.020000
v 5.633332 1.077557 0.020000
v 5.655568 1.077557 0.020000
v 5.633332 1.077557 -0.020000
v 5.655568 1.077557 -0.020000
v 5.633332 0.990766 -0.020000
v 5.655568 0.990766 -0.020000
v 5.633332 0.990766 -1.980000
v 5.655568 0.990766 -1.980000
v 5.633332 1.077557 -1.980000
v 5.655568 1.077557 -1.980000
v 5.633332 1.077557 -2.020000
v 5.655568 1.077557 -2.020000
v 5.633332 0.990766 -2.020000
v 5.655568 0.990766 -2.020000
v 5.633332 0.990766 -3.980000
v 5.655568 0.990766 -3.980000
v 5.633332 1.077557 -3.980000
v 5.655568 1.077557 -3.980000
v 5.633332 1.077557 -4.020000
v 5.655568 1.077557 -4.020000
v 5.633332 0.990766 -4.020000
v 5.655568 0.990766 -4.020000
v 5.633332 0.990766 -5.878298
v 5.655568 0.990766 -5.878298
v 5.633332 1.077557 -5.878298
v 5.655568 1.077557 -5.878298
v 5.633332 1.077557 -5.918298
v 5.655568 1.077557 -5.918298
v 5.633332 0.990766 -5.918298
v 5.655568 0.990766 -5.918298
v 5.627945 1.092225 -5.907869
v 4.086459 1.092225 -5.907870
v 4.100006 1.092225 5.878037
v 5.627945 1.092225 5.878038
v 5.630639 1.105200 -5.910563
v 4.086459 1.105200 -5.910564
v 4.100006 1.105200 5.880731
v 5.630639 1.105200 5.880733
v 5.637866 1.114056 -5.917790
v 4.086459 1.114056 -5.917790
v 4.100006 1.114056 5.887958
v 5.637866 1.114056 5.887959
v 5.647331 1.115980 -5.927256
v 4.086459 1.115980 -5.927256
v 4.100006 1.115980 5.897423
v 5.647331 1.115980 5.897425
v 5.656029 1.110363 -5.935953
v 4.086459 1.110363 -5.935954
v 4.100006 1.110363 5.906121
v 5.656029 1.110363 5.906122
v 5.661199 1.098986 -5.941123
v 4.086459 1.098986 -5.941123
v 4.100006 1.098986 5.911290
v 5.661199 1.098986 5.911292
v 5.661199 1.085463 -5.941123
v 4.086459 1.085463 -5.941123
v 4.100006 1.085463 5.911290
v 5.661199 1.085463 5.911292
v 5.656029 1.074087 -5.935953
v 4.086459 1.074087 -5.935954
v 4.100006 1.074087 5.906121
v 5.656029 1.074087 5.906122
v 5.647331 1.068469 -5.927256
v 4.086459 1.068469 -5.927256
v 4.100006 1.068469 5.897423
v 5.647331 1.068469 5.897425
v 5.637866 1.070394 -5.917790
v 4.086459 1.070394 -5.917790
v 4.100006 1.070394 5.887958
v 5.637866 1.070394 5.887959
v 5.630639 1.079249 -5.910563
v 4.086459 1.079249 -5.910564
v 4.100006 1.079249 5.880731
v 5.630639 1.079249 5.880733
vt 0.375000 0.000000
vt 0.625000 0.000000
vt 0.625000 0.250000
vt 0.375000 0.250000
vt 0.625000 0.500000
vt 0.375000 0.500000
vt 0.625000 0.750000
vt 0.375000 0.750000
vt 0.625000 1.000000
vt 0.375000 1.000000
vt 0.875000 0.000000
vt 0.875000 0.250000
vt 0.125000 0.000000
vt 0.125000 0.250000
vt 0.375000 0.000000
vt 0.625000 0.000000
vt 0.625000 0.250000
vt 0.375000 0.250000
vt 0.625000 0.500000
vt 0.375000 0.500000
vt 0.625000 0.750000
vt 0.375000 0.750000
vt 0.625000 1.000000
vt 0.375000 1.000000
vt 0.875000 0.000000
vt 0.875000 0.250000
vt 0.125000 0.000000
vt 0.125000 0.250000
vt 0.375000 0.000000
vt 0.625000 0.000000
vt 0.625000 0.250000
vt 0.375000 0.250000
vt 0.625000 0.500000
vt 0.375000 0.500000
vt 0.625000 0.750000
vt 0.375000 0.750000
vt 0.625000 1.000000
vt 0.375000 1.000000
vt 0.875000 0.000000
vt 0.875000 0.250000
vt 0.125000 0.000000
vt 0.125000 0.250000
vt 0.375000 0.000000
vt 0.625000 0.000000
vt 0.625000 0.250000
vt 0.375000 0.250000
vt 0.625000 0.500000
vt 0.375000 0.500000
vt 0.625000 0.750000
vt 0.375000 0.750000
vt 0.625000 1.000000
vt 0.375000 1.000000
vt 0.875000 0.000000
vt 0.875000 0.250000
vt 0.125000 0.000000
vt 0.125000 0.250000
vt 0.375000 0.000000
vt 0.625000 0.000000
vt 0.625000 0.250000
vt 0.375000 0.250000
vt 0.625000 0.500000
vt 0.375000 0.500000
vt 0.625000 0.750000
vt 0.375000 0.750000
vt 0.625000 1.000000
vt 0.375000 1.000000
vt 0.875000 0.000000
vt 0.875000 0.250000
vt 0.125000 0.000000
vt 0.125000 0.250000
vt 0.375000 0.000000
vt 0.625000 0.000000
vt 0.625000 0.250000
vt 0.375000 0.250000
vt 0.625000 0.500000
vt 0.375000 0.500000
vt 0.625000 0.750000
vt 0.375000 0.750000
vt 0.625000 1.000000
vt 0.375000 1.000000
vt 0.875000 0.000000
vt 0.875000 0.250000
vt 0.125000 0.000000
vt 0.125000 0.250000
vt 0.375000 0.000000
vt 0.625000 0.000000
vt 0.625000 0.250000
vt 0.375000 0.250000
vt 0.625000 0.500000
vt 0.375000 0.500000
vt 0.625000 0.750000
vt 0.375000 0.750000
vt 0.625000 1.000000
vt 0.375000 1.000000
vt 0.875000 0.000000
vt 0.875000 0.250000
vt 0.125000 0.000000
vt 0.125000 0.250000
vt 0.250000 1.000000
vt 0.000000 1.000000
vt 0.000000 0.909091
vt 0.250000 0.909091
vt 0.750000 1.000000
vt 0.500000 1.000000
vt 0.500000 0.909091
vt 0.750000 0.909091
vt 1.000000 1.000000
vt 1.000000 0.909091
vt 0.000000 0.818182
vt 0.250000 0.818182
vt 0.500000 0.818182
vt 0.750000 0.818182
vt 1.000000 0.818182
vt 0.000000 0.727273
vt 0.250000 0.727273
vt 0.500000 0.727273
vt 0.750000 0.727273
vt 1.000000 0.727273
vt 0.000000 0.636364
vt 0.250000 0.636364
vt 0.500000 0.636364
vt 0.750000 0.636364
vt 1.000000 0.636364
vt 0.000000 0.545454
vt 0.250000 0.545454
vt 0.500000 0.545454
vt 0.750000 0.545454
vt 1.000000 0.545454
vt 0.000000 0.454545
vt 0.250000 0.454545
vt 0.500000 0.454545
vt 0.750000 0.454545
vt 1.000000 0.454545
vt 0.000000 0.363636
vt 0.250000 0.363636
vt 0.500000 0.363636
vt 0.750000 0.363636
vt 1.000000 0.363636
vt 0.000000 0.272727
vt 0.250000 0.272727
vt 0.500000 0.272727
vt 0.750000 0.272727
vt 1.000000 0.272727
vt 0.000000 0.181818
vt 0.250000 0.181818
vt 0.500000 0.181818
vt 0.750000 0.181818
vt 1.000000 0.181818
vt 0.000000 0.090909
vt 0.250000 0.090909
vt 0.500000 0.090909
vt 0.750000 0.090909
vt 1.000000 0.090909
vt 0.000000 -0.000000
vt 0.250000 -0.000000
vt 0.500000 -0.000000
vt 0.750000 -0.000000
vt 1.000000 -0.000000
vn 0.000000 0.000000 1.000000
vn 0.000000 0.000000 1.000000
vn 0.000000 0.000000 1.000000
vn 0.000000 0.000000 1.000000
vn 0.000000 1.000000 0.000000
vn 0.000000 1.000000 0.000000
vn 0.000000 1.000000 0.000000
vn 0.000000 1.000000 0.000000
vn 0.000000 0.000000 -1.000000
vn 0.000000 0.000000 -1.000000
vn 0.000000 0.000000 -1.000000
vn 0.000000 0.000000 -1.000000
vn 0.000000 -1.000000 0.000000
vn 0.000000 -1.000000 0.000000
vn 0.000000 -1.000000 0.000000
vn 0.000000 -1.000000 0.000000
vn 1.000000 0.000000 0.000000
vn 1.000000 0.000000 0.000000
vn 1.000000 0.000000 0.000000
vn 1.000000 0.000000 0.000000
vn -1.000000 0.000000 0.000000
vn -1.000000 0.000000 0.000000
vn -1.000000 0.000000 0.000000
vn -1.000000 0.000000 0.000000
vn 0.000000 0.000000 1.000000
vn 0.000000 0.000000 1.000000
vn 0.000000 0.000000 1.000000
vn 0.000000 0.000000 1.000000
vn 0.000000 1.000000 0.000000
vn 0.000000 1.000000 0.000000
vn 0.000000 1.000000 0.000000
vn 0.000000 1.000000 0.000000
vn 0.000000 0.000000 -1.000000
vn 0.000000 0.000000 -1.000000
vn 0.000000 0.000000 -1.000000
vn 0.000000 0.000000 -1.000000
vn 0.000000 -1.000000 0.000000
vn 0.000000 -1.000000 0.000000
vn 0.000000 -1.000000 0.000000
vn 0.000000 -1.000000 0.000000
vn 1.000000 0.000000 0.000000
vn 1.000000 0.000000 0.000000
vn 1.000000 0.000000 0.000000
vn 1.000000 0.000000 0.000000
vn -1.000000 0.000000 0.000000
vn -1.000000 0.000000 0.000000
vn -1.000000 0.000000 0.000000
vn -1.000000 0.000000 0.000000
vn 0.000000 0.000000 1.000000
vn 0.000000 0.000000 1.000000
vn 0.000000 0.000000 1.000000
vn 0.000000 0.000000 1.000000
vn 0.000000 1.000000 0.000000
vn 0.000000 1.000000 0.000000
vn 0.000000 1.000000 0.000000
vn 0.000000 1.000000 0.000000
vn 0.000000 0.000000 -1.000000
vn 0.000000 0.000000 -1.000000
vn 0.000000 0.000000 -1.000000
vn 0.000000 0.000000 -1.000000
vn 0.000000 -1.000000 0.000000
vn 0.000000 -1.000000 0.000000
vn 0.000000 -1.000000 0.000000
vn 0.000000 -1.000000 0.000000
vn 1.000000 0.000000 0.000000
vn 1.000000 0.000000 0.000000
vn 1.000000 0.000000 0.000000
vn 1.000000 0.000000 0.000000
vn -1.000000 0.000000 0.000000
vn -1.000000 0.000000 0.000000
vn -1.000000 0.000000 0.000000
vn -1.000000 0.000000 0.000000
vn 0.000000 0.000000 1.000000
vn 0.000000 0.000000 1.000000
vn 0.000000 0.000000 1.000000
vn 0.000000 0.000000 1.000000
vn 0.000000 1.000000 0.000000
vn 0.000000 1.000000 0.000000
vn 0.000000 1.000000 0.000000
vn 0.000000 1.000000 0.000000
vn 0.000000 0.000000 -1.000000
vn 0.000000 0.000000 -1.000000
vn 0.000000 0.000000 -1.000000
vn 0.000000 0.000000 -1.000000
vn 0.000000 -1.000000 0.000000
vn 0.000000 -1.000000 0.000000
vn 0.000000 -1.000000 0.000000
vn 0.000000 -1.000000 0.000000
vn 1.000000 0.000000 0.000000
vn 1.000000 0.000000 0.000000
vn 1.000000 0.000000 0.000000
vn 1.000000 0.000000 0.000000
vn -1.000000 0.000000 0.000000
vn -1.000000 0.000000 0.000000
vn -1.000000 0.000000 0.000000
vn -1.000000 0.000000 0.000000
vn 0.000000 0.000000 1.000000
vn 0.000000 0.000000 1.000000
vn 0.000000 0.000000 1.000000
vn 0.000000 0.000000 1.000000
vn 0.000000 1.000000 0.000000
vn 0.000000 1.000000 0.000000
vn 0.000000 1.000000 0.000000
vn 0.000000 1.000000 0.000000
vn 0.000000 0.000000 -1.000000
vn 0.000000 0.000000 -1.000000
vn 0.000000 0.000000 -1.000000
vn 0.000000 0.000000 -1.000000
vn 0.000000 -1.000000 0.000000
vn 0.000000 -1.000000 0.000000
vn 0.000000 -1.000000 0.000000
vn 0.000000 -1.000000 0.000000
vn 1.000000 0.000000 0.000000
vn 1.000000 0.000000 0.000000
vn 1.000000 0.000000 0.000000
vn 1.000000 0.000000 0.000000
vn -1.000000 0.000000 0.000000
vn -1.000000 0.000000 0.000000
vn -1.000000 0.000000 0.000000
vn -1.000000 0.000000 0.000000
vn 0.000000 0.000000 1.000000
vn 0.000000 0.000000 1.000000
vn 0.000000 0.000000 1.000000
vn 0.000000 0.000000 1.000000
vn 0.000000 1.000000 0.000000
vn 0.000000 1.000000 0.000000
vn 0.000000 1.000000 0.000000
vn 0.000000 1.000000 0.000000
vn 0.000000 0.000000 -1.000000
vn 0.000000 0.000000 -1.000000
vn 0.000000 0.000000 -1.000000
vn 0.000000 0.000000 -1.000000
vn 0.000000 -1.000000 0.000000
vn 0.000000 -1.000000 0.000000
vn 0.000000 -1.000000 0.000000
vn 0.000000 -1.000000 0.000000
vn 1.000000 0.000000 0.000000
vn 1.000000 0.000000 0.000000
vn 1.000000 0.000000 0.000000
vn 1.000000 0.000000 0.000000
vn -1.000000 0.000000 0.000000
vn -1.000000 0.000000 0.000000
vn -1.000000 0.000000 0.000000
vn -1.000000 0.000000 0.000000
vn 0.000000 0.000000 1.000000
vn 0.000000 0.000000 1.000000
vn 0.000000 0.000000 1.000000
vn 0.000000 0.000000 1.000000
vn 0.000000 1.000000 0.000000
vn 0.000000 1.000000 0.000000
vn 0.000000 1.000000 0.000000
vn 0.000000 1.000000 0.000000
vn 0.000000 0.000000 -1.000000
vn 0.000000 0.000000 -1.000000
vn 0.000000 0.000000 -1.000000
vn 0.000000 0.000000 -1.000000
vn 0.000000 -1.000000 0.000000
vn 0.000000 -1.000000 0.000000
vn 0.000000 -1.000000 0.000000
vn 0.000000 -1.000000 0.000000
vn 1.000000 0.000000 0.000000
vn 1.000000 0.000000 0.000000
vn 1.000000 0.000000 0.000000
vn 1.000000 0.000000 0.000000
vn -1.000000 0.000000 0.000000
vn -1.000000 0.000000 0.000000
vn -1.000000 0.000000 0.000000
vn -1.000000 0.000000 0.000000
vn -0.000000 0.000000 1.000000
vn -0.991544 0.000000 0.129769
vn -0.855963 0.504724 0.112161
vn -0.000000 0.414066 0.910247
vn -0.991690 -0.000000 -0.128648
vn 0.000001 -0.000000 -1.000000
vn 0.000001 0.414078 -0.910241
vn -0.856278 0.504399 -0.111219
vn -0.372847 0.926599 0.048977
vn -0.000000 0.840549 0.541736
vn 0.000001 0.840561 -0.541717
vn -0.373179 0.926486 -0.048592
vn 0.341374 0.938841 -0.045181
vn 0.000000 0.979710 -0.200422
vn -0.000000 0.979707 0.200434
vn 0.341685 0.938745 0.044830
vn 0.800325 0.590096 -0.106144
vn 0.000000 0.631738 -0.775182
vn -0.000001 0.631726 0.775192
vn 0.800684 0.589764 0.105275
vn 0.972531 0.193655 -0.129153
vn -0.000000 0.203120 -0.979154
vn -0.000001 0.203110 0.979156
vn 0.972707 0.193496 0.128064
vn 0.972531 -0.193654 -0.129153
vn -0.000000 -0.203119 -0.979154
vn -0.000001 -0.203108 0.979156
vn 0.972707 -0.193495 0.128064
vn 0.800327 -0.590094 -0.106144
vn 0.000000 -0.631737 -0.775183
vn -0.000001 -0.631724 0.775193
vn 0.800686 -0.589762 0.105276
vn 0.341367 -0.938844 -0.045180
vn 0.000000 -0.979711 -0.200414
vn -0.000000 -0.979708 0.200432
vn 0.341678 -0.938747 0.044830
vn -0.372847 -0.926599 0.048977
vn -0.000000 -0.840549 0.541736
vn 0.000001 -0.840560 -0.541718
vn -0.373179 -0.926486 -0.048592
vn -0.855963 -0.504724 0.112161
vn -0.000000 -0.414067 0.910247
vn 0.000001 -0.414077 -0.910242
vn -0.856278 -0.504399 -0.111219
s off
g polySurface11
usemtl initialShadingGroup
f 1/1/1 2/2/2 4/3/3 3/4/4
f 3/4/5 4/3/6 6/5/7 5/6/8
f 5/6/9 6/5/10 8/7/11 7/8/12
f 7/8/13 8/7/14 2/9/15 1/10/16
f 2/2/17 8/11/18 6/12/19 4/3/20
f 7/13/21 1/1/22 3/4/23 5/14/24
f 9/15/25 10/16/26 12/17/27 11/18/28
f 11/18/29 12/17/30 14/19/31 13/20/32
f 13/20/33 14/19/34 16/21/35 15/22/36
f 15/22/37 16/21/38 10/23/39 9/24/40
f 10/16/41 16/25/42 14/26/43 12/17/44
f 15/27/45 9/15/46 11/18/47 13/28/48
f 17/29/49 18/30/50 20/31/51 19/32/52
f 19/32/53 20/31/54 22/33/55 21/34/56
f 21/34/57 22/33/58 24/35/59 23/36/60
f 23/36/61 24/35/62 18/37/63 17/38/64
f 18/30/65 24/39/66 22/40/67 20/31/68
f 23/41/69 17/29/70 19/32/71 21/42/72
f 25/43/73 26/44/74 28/45/75 27/46/76
f 27/46/77 28/45/78 30/47/79 29/48/80
f 29/48/81 30/47/82 32/49/83 31/50/84
f 31/50/85 32/49/86 26/51/87 25/52/88
f 26/44/89 32/53/90 30/54/91 28/45/92
f 31/55/93 25/43/94 27/46/95 29/56/96
f 33/57/97 34/58/98 36/59/99 35/60/100
f 35/60/101 36/59/102 38/61/103 37/62/104
f 37/62/105 38/61/106 40/63/107 39/64/108
f 39/64/109 40/63/110 34/65/111 33/66/112
f 34/58/113 40/67/114 38/68/115 36/59/116
f 39/69/117 33/57/118 35/60/119 37/70/120
f 41/71/121 42/72/122 44/73/123 43/74/124
f 43/74/125 44/73/126 46/75/127 45/76/128
f 45/76/129 46/75/130 48/77/131 47/78/132
f 47/78/133 48/77/134 42/79/135 41/80/136
f 42/72/137 48/81/138 46/82/139 44/73/140
f 47/83/141 41/71/142 43/74/143 45/84/144
f 49/85/145 50/86/146 52/87/147 51/88/148
f 51/88/149 52/87/150 54/89/151 53/90/152
f 53/90/153 54/89/154 56/91/155 55/92/156
f 55/92/157 56/91/158 50/93/159 49/94/160
f 50/86/161 56/95/162 54/96/163 52/87/164
f 55/97/165 49/85/166 51/88/167 53/98/168
s 1
f 58/99/169 57/100/170 61/101/171 62/102/172
f 60/103/173 59/104/174 63/105/175 64/106/176
f 57/107/170 60/103/173 64/106/176 61/108/171
f 62/102/172 61/101/171 65/109/177 66/110/178
f 64/106/176 63/105/175 67/111/179 68/112/180
f 61/108/171 64/106/176 68/112/180 65/113/177
f 66/110/178 65/109/177 69/114/181 70/115/182
f 68/112/180 67/111/179 71/116/183 72/117/184
f 65/113/177 68/112/180 72/117/184 69/118/181
f 70/115/182 69/114/181 73/119/185 74/120/186
f 72/117/184 71/116/183 75/121/187 76/122/188
f 69/118/181 72/117/184 76/122/188 73/123/185
f 74/120/186 73/119/185 77/124/189 78/125/190
f 76/122/188 75/121/187 79/126/191 80/127/192
f 73/123/185 76/122/188 80/127/192 77/128/189
f 78/125/190 77/124/189 81/129/193 82/130/194
f 80/127/192 79/126/191 83/131/195 84/132/196
f 77/128/189 80/127/192 84/132/196 81/133/193
f 82/130/194 81/129/193 85/134/197 86/135/198
f 84/132/196 83/131/195 87/136/199 88/137/200
f 81/133/193 84/132/196 88/137/200 85/138/197
f 86/135/198 85/134/197 89/139/201 90/140/202
f 88/137/200 87/136/199 91/141/203 92/142/204
f 85/138/197 88/137/200 92/142/204 89/143/201
f 90/140/202 89/139/201 93/144/205 94/145/206
f 92/142/204 91/141/203 95/146/207 96/147/208
f 89/143/201 92/142/204 96/147/208 93/148/205
f 94/145/206 93/144/205 97/149/209 98/150/210
f 96/147/208 95/146/207 99/151/211 100/152/212
f 93/148/205 96/147/208 100/152/212 97/153/209
f 98/150/210 97/149/209 57/154/170 58/155/169
f 100/152/212 99/151/211 59/156/174 60/157/173
f 97/153/209 100/152/212 60/157/173 57/158/170
