# This file uses centimeters as units for non-parametric coordinates.

mtllib balconyTrim.mtl
g default
v 4.084529 0.998037 5.809698
v 4.086459 0.999966 5.809698
v 4.086459 0.998037 5.807769
v 5.559232 0.998037 5.807769
v 5.560480 0.999966 5.809415
v 5.562808 0.999966 5.807087
v 5.561162 0.998037 5.805840
v 4.086459 0.998037 -5.807769
v 4.086459 0.999966 -5.809698
v 4.084529 0.998037 -5.809698
v 5.561162 0.998037 -5.805840
v 5.562808 0.999966 -5.807087
v 5.560480 0.999966 -5.809415
v 5.559232 0.998037 -5.807769
v 5.736161 0.998037 5.980839
v 5.734515 0.999966 5.978793
v 5.732186 0.999966 5.981122
v 5.734232 0.998037 5.982769
v 4.086459 0.998037 5.982769
v 4.086459 0.999966 5.980839
v 4.084529 0.998037 5.980839
v 4.084529 0.998037 -5.980839
v 4.086459 0.999966 -5.980839
v 4.086459 0.998037 -5.982769
v 5.734232 0.998037 -5.982769
v 5.732186 0.999966 -5.981122
v 5.734515 0.999966 -5.978793
v 5.736161 0.998037 -5.980839
v 4.084529 0.963307 5.809698
v 4.086459 0.963307 5.807769
v 4.086459 0.961378 5.809698
v 5.562808 0.961378 5.807087
v 5.560480 0.961378 5.809415
v 5.559232 0.963307 5.807769
v 5.561162 0.963307 5.805840
v 4.086459 0.963307 5.982769
v 4.084529 0.963307 5.980839
v 4.086459 0.961378 5.980839
v 5.736161 0.963307 5.980839
v 5.734232 0.963307 5.982769
v 5.732186 0.961378 5.981122
v 5.734515 0.961378 5.978793
v 4.086459 0.961378 -5.809698
v 4.086459 0.963307 -5.807769
v 4.084529 0.963307 -5.809698
v 5.561162 0.963307 -5.805840
v 5.559232 0.963307 -5.807769
v 5.560480 0.961378 -5.809415
v 5.562808 0.961378 -5.807087
v 5.734515 0.961378 -5.978793
v 5.732186 0.961378 -5.981122
v 5.734232 0.963307 -5.982769
v 5.736161 0.963307 -5.980839
v 4.084529 0.963307 -5.980839
v 4.086459 0.963307 -5.982769
v 4.086459 0.961378 -5.980839
vt 1.947186 -4.582964
vt 1.916801 -4.582964
vt 1.916801 -4.732698
vt 1.947186 -4.732698
vt 1.947186 -4.581276
vt 1.916801 -4.581276
vt 1.915114 -4.582964
vt 1.915114 -4.732698
vt 1.947186 -4.734385
vt 1.916801 -4.734385
vt 1.948874 -4.582964
vt 1.948874 -4.732698
vt 2.041936 -4.582964
vt 2.011550 -4.582964
vt 2.011550 -4.732698
vt 2.041936 -4.732698
vt 2.041936 -4.581276
vt 2.011550 -4.581276
vt 2.009863 -4.732698
vt 2.009863 -4.582964
vt 2.041936 -4.734385
vt 2.011550 -4.734385
vt 2.043624 -4.732698
vt 2.043624 -4.582964
vt 1.473442 5.426479
vt 1.443057 5.426479
vt 1.443057 -4.732697
vt 1.473442 -4.732697
vt 1.473442 5.428167
vt 1.443057 5.428167
vt 1.441369 -4.733789
vt 1.441369 5.427570
vt 1.473442 -4.734385
vt 1.443057 -4.734385
vt 1.475130 -4.733789
vt 1.475130 5.427570
vt -0.137291 5.732697
vt -0.167677 5.732697
vt -0.167677 -4.732698
vt -0.137291 -4.732698
vt -0.137291 5.734385
vt -0.167677 5.734385
vt -0.169364 5.730907
vt -0.169364 -4.730907
vt -0.137291 -4.734385
vt -0.167677 -4.734385
vt -0.135604 5.730907
vt -0.135604 -4.730907
vt -0.395569 -4.580680
vt -0.397607 -4.582716
vt -0.247379 -4.732945
vt -0.245342 -4.730907
vt -0.398698 -4.581276
vt -0.397010 -4.579589
vt -1.687243 -4.582964
vt -1.687243 -4.732698
vt -0.243901 -4.732698
vt -0.245589 -4.734385
vt -0.395569 5.580679
vt -0.245342 5.730907
vt -1.687243 -4.581276
vt -1.687243 -4.734385
vt -0.397607 5.582716
vt -0.247379 5.732944
vt -0.397010 5.579588
vt -0.398698 5.581276
vt -0.245589 5.734385
vt -0.243901 5.732697
vt -1.687243 5.582963
vt -1.687243 5.732697
vt -1.687243 5.581276
vt -1.687243 5.734385
vt 1.215021 5.582716
vt 1.217059 5.580679
vt 1.367286 5.730907
vt 1.365249 5.732944
vt 1.213930 5.581276
vt 1.215618 5.579588
vt 1.217059 -4.580680
vt 1.367286 -4.730907
vt 1.368727 5.732697
vt 1.367039 5.734385
vt -0.074615 5.732697
vt -0.074615 5.582963
vt -0.074615 5.581276
vt 1.215021 -4.582716
vt 1.365249 -4.732945
vt -0.074615 5.734385
vt 1.215618 -4.579589
vt 1.213930 -4.581276
vt -0.074615 -4.582964
vt -0.074615 -4.732698
vt 1.367039 -4.734385
vt 1.368727 -4.732698
vt -0.074615 -4.581276
vt -0.074615 -4.734385
vt 1.725616 -4.734385
vt 1.756002 -4.734385
vt 1.756002 -3.445841
vt 1.725616 -3.445841
vt 1.566503 -3.292732
vt 1.536118 -3.292732
vt 1.536118 -4.734385
vt 1.566503 -4.734385
vt 1.850750 -3.445840
vt 1.820365 -3.445840
vt 1.820365 -4.734385
vt 1.850750 -4.734385
vt 1.630867 -4.734385
vt 1.661252 -4.734385
vt 1.661252 -3.292730
vt 1.630867 -3.292730
vn -0.707152 0.000000 -0.707062
vn -0.707152 0.000000 -0.707062
vn -0.707152 0.000000 -0.707062
vn -0.707152 0.000000 -0.707062
vn -0.707095 0.707119 0.000000
vn -0.707095 0.707119 0.000000
vn -0.707095 0.707119 0.000000
vn -0.707095 0.707119 0.000000
vn -0.000070 0.679786 -0.733411
vn -0.000070 0.679786 -0.733411
vn -0.000070 0.679786 -0.733411
vn -0.000070 0.679786 -0.733411
vn -0.707073 0.000000 -0.707141
vn -0.707073 0.000000 -0.707141
vn -0.707073 0.000000 -0.707141
vn -0.707073 0.000000 -0.707141
vn 0.000000 1.000000 0.000000
vn 0.000000 1.000000 0.000000
vn 0.000000 1.000000 0.000000
vn 0.000000 1.000000 0.000000
vn -0.760508 0.649328 0.000000
vn -0.760508 0.649328 0.000000
vn -0.760508 0.649328 0.000000
vn -0.760508 0.649328 0.000000
vn -0.707152 0.000000 0.707062
vn -0.707152 0.000000 0.707062
vn -0.707152 0.000000 0.707062
vn -0.707152 0.000000 0.707062
vn -0.000070 0.679786 0.733411
vn -0.000070 0.679786 0.733411
vn -0.000070 0.679786 0.733411
vn -0.000070 0.679786 0.733411
vn -0.707095 0.707119 0.000000
vn -0.707095 0.707119 0.000000
vn -0.707095 0.707119 0.000000
vn -0.707095 0.707119 0.000000
vn -0.707073 0.000000 0.707141
vn -0.707073 0.000000 0.707141
vn -0.707073 0.000000 0.707141
vn -0.707073 0.000000 0.707141
vn 0.000000 1.000000 0.000000
vn 0.000000 1.000000 0.000000
vn 0.000000 1.000000 0.000000
vn 0.000000 1.000000 0.000000
vn 0.707073 0.000000 0.707141
vn 0.707073 0.000000 0.707141
vn 0.707073 0.000000 0.707141
vn 0.707073 0.000000 0.707141
vn 0.760613 0.649205 0.000000
vn 0.760613 0.649205 0.000000
vn 0.760613 0.649205 0.000000
vn 0.760613 0.649205 0.000000
vn -0.000063 0.679758 0.733437
vn -0.000063 0.679758 0.733437
vn -0.000063 0.679758 0.733437
vn -0.000063 0.679758 0.733437
vn -0.707073 0.000000 0.707141
vn -0.707073 0.000000 0.707141
vn -0.707073 0.000000 0.707141
vn -0.707073 0.000000 0.707141
vn -0.707073 0.000000 -0.707141
vn -0.707073 0.000000 -0.707141
vn -0.707073 0.000000 -0.707141
vn -0.707073 0.000000 -0.707141
vn -0.000063 0.679758 -0.733437
vn -0.000063 0.679758 -0.733437
vn -0.000063 0.679758 -0.733437
vn -0.000063 0.679758 -0.733437
vn 0.707073 0.000000 -0.707141
vn 0.707073 0.000000 -0.707141
vn 0.707073 0.000000 -0.707141
vn 0.707073 0.000000 -0.707141
vn -0.707095 -0.707119 0.000000
vn -0.707095 -0.707119 0.000000
vn -0.707095 -0.707119 0.000000
vn -0.707095 -0.707119 0.000000
vn -0.000070 -0.679771 -0.733425
vn -0.000070 -0.679771 -0.733425
vn -0.000070 -0.679771 -0.733425
vn -0.000070 -0.679771 -0.733425
vn -0.760508 -0.649328 0.000000
vn -0.760508 -0.649328 0.000000
vn -0.760508 -0.649328 0.000000
vn -0.760508 -0.649328 0.000000
vn 0.000000 -1.000000 0.000000
vn 0.000000 -1.000000 0.000000
vn 0.000000 -1.000000 0.000000
vn 0.000000 -1.000000 0.000001
vn -0.000063 -0.679758 0.733437
vn -0.000063 -0.679758 0.733437
vn -0.000063 -0.679758 0.733437
vn -0.000063 -0.679758 0.733437
vn 0.760613 -0.649205 0.000000
vn 0.760613 -0.649205 0.000000
vn 0.760613 -0.649205 0.000000
vn 0.760613 -0.649205 0.000000
vn -0.707095 -0.707119 0.000000
vn -0.707095 -0.707119 0.000000
vn -0.707095 -0.707119 0.000000
vn -0.707095 -0.707119 0.000000
vn -0.000070 -0.679771 0.733425
vn -0.000070 -0.679771 0.733425
vn -0.000070 -0.679771 0.733425
vn -0.000070 -0.679771 0.733425
vn 0.000000 -1.000000 -0.000000
vn 0.000000 -1.000000 -0.000000
vn 0.000000 -1.000000 -0.000001
vn 0.000000 -1.000000 -0.000000
vn -0.000063 -0.679758 -0.733437
vn -0.000063 -0.679758 -0.733437
vn -0.000063 -0.679758 -0.733437
vn -0.000063 -0.679758 -0.733437
vn 0.000000 -1.000000 0.000000
vn 0.000000 -1.000000 0.000000
vn 0.000000 -1.000000 -0.000000
vn 0.000000 -1.000000 -0.000000
vn 0.000000 1.000000 0.000000
vn 0.000000 1.000000 0.000000
vn 0.000000 1.000000 0.000000
vn 0.000000 1.000000 0.000000
vn 0.000000 0.000000 -1.000000
vn 0.000000 0.000000 -1.000000
vn 0.000000 0.000000 -1.000000
vn 0.000000 0.000000 -1.000000
vn -1.000000 0.000000 0.000000
vn -1.000000 0.000000 0.000000
vn -1.000000 0.000000 0.000000
vn -1.000000 0.000000 0.000000
vn 0.000000 0.000000 1.000000
vn 0.000000 0.000000 1.000000
vn 0.000000 0.000000 1.000000
vn 0.000000 0.000000 1.000000
vn 0.000000 0.000000 1.000000
vn 0.000000 0.000000 1.000000
vn 0.000000 0.000000 1.000000
vn 0.000000 0.000000 1.000000
vn 0.000000 0.000000 -1.000000
vn 0.000000 0.000000 -1.000000
vn 0.000000 0.000000 -1.000000
vn 0.000000 0.000000 -1.000000
vn -1.000000 0.000000 0.000000
vn -1.000000 0.000000 0.000000
vn -1.000000 0.000000 0.000000
vn -1.000000 0.000000 0.000000
vn -1.000000 0.000000 0.000000
vn -1.000000 0.000000 0.000000
vn -1.000000 0.000000 0.000000
vn -1.000000 0.000000 0.000000
vn 1.000000 0.000000 0.000000
vn 1.000000 0.000000 0.000000
vn 1.000000 0.000000 0.000000
vn 1.000000 0.000000 0.000000
vn -0.577242 0.577531 -0.577278
vn -0.577242 0.577531 -0.577278
vn -0.577242 0.577531 -0.577278
vn -0.485003 0.727670 -0.485045
vn -0.485003 0.727670 -0.485045
vn -0.485003 0.727670 -0.485045
vn -0.485003 0.727670 -0.485045
vn -0.577242 0.577531 0.577278
vn -0.577242 0.577531 0.577278
vn -0.577242 0.577531 0.577278
vn -0.485042 0.727618 0.485083
vn -0.485042 0.727618 0.485083
vn -0.485042 0.727618 0.485083
vn -0.485042 0.727618 0.485083
vn 0.420091 0.804356 0.420162
vn 0.420090 0.804356 0.420162
vn 0.420090 0.804356 0.420162
vn 0.420091 0.804356 0.420162
vn -0.577242 0.577531 0.577278
vn -0.577242 0.577531 0.577278
vn -0.577242 0.577531 0.577278
vn -0.577242 0.577531 -0.577278
vn -0.577242 0.577531 -0.577278
vn -0.577242 0.577531 -0.577278
vn 0.420088 0.804352 -0.420172
vn 0.420088 0.804352 -0.420172
vn 0.420088 0.804352 -0.420172
vn 0.420088 0.804352 -0.420172
vn -0.577242 -0.577531 -0.577278
vn -0.577242 -0.577531 -0.577278
vn -0.577242 -0.577531 -0.577278
vn -0.485003 -0.727670 -0.485045
vn -0.485003 -0.727670 -0.485045
vn -0.485003 -0.727670 -0.485045
vn -0.485003 -0.727670 -0.485045
vn -0.577242 -0.577531 0.577278
vn -0.577242 -0.577531 0.577278
vn -0.577242 -0.577531 0.577278
vn 0.420086 -0.804348 0.420182
vn 0.420086 -0.804348 0.420182
vn 0.420086 -0.804348 0.420182
vn 0.420086 -0.804348 0.420182
vn -0.577242 -0.577531 0.577278
vn -0.577242 -0.577531 0.577278
vn -0.577242 -0.577531 0.577278
vn -0.485003 -0.727670 0.485045
vn -0.485003 -0.727670 0.485045
vn -0.485003 -0.727670 0.485045
vn -0.485003 -0.727670 0.485045
vn 0.420088 -0.804352 -0.420172
vn 0.420088 -0.804352 -0.420172
vn 0.420088 -0.804352 -0.420172
vn 0.420088 -0.804352 -0.420172
vn -0.577242 -0.577531 -0.577278
vn -0.577242 -0.577531 -0.577278
vn -0.577242 -0.577531 -0.577278
s off
g polySurface19 pCube24
usemtl initialShadingGroup
f 1/1/1 3/5/2 30/6/3 29/2/4
f 2/11/5 1/1/6 21/4/7 20/12/8
f 3/61/9 2/55/10 5/50/11 4/53/12
f 4/33/13 7/28/14 35/27/15 34/34/16
s 1
f 6/49/17 5/50/18 17/51/19 16/52/20
s off
f 7/28/21 6/35/22 12/36/23 11/25/24
f 8/21/25 10/16/26 45/15/27 44/22/28
f 9/69/29 8/71/30 14/66/31 13/63/32
f 10/16/33 9/23/34 23/24/35 22/13/36
f 11/25/37 14/29/38 47/30/39 46/26/40
s 1
f 13/63/41 12/59/42 27/60/43 26/64/44
s off
f 15/37/45 18/41/46 40/42/47 39/38/48
f 16/47/49 15/37/50 28/40/51 27/48/52
f 18/58/53 17/51/54 20/56/55 19/62/56
f 19/9/57 21/4/58 37/3/59 36/10/60
f 22/13/61 24/17/62 55/18/63 54/14/64
f 24/72/65 23/70/66 26/64/67 25/67/68
f 25/45/69 28/40/70 53/39/71 52/46/72
f 29/2/73 31/7/74 38/8/75 37/3/76
f 31/84/77 30/85/78 34/77/79 33/73/80
f 32/31/81 35/27/82 46/26/83 49/32/84
s 2
f 33/73/85 32/74/86 42/75/87 41/76/88
s off
f 36/88/89 38/83/90 41/76/91 40/82/92
f 39/38/93 42/43/94 50/44/95 53/39/96
f 43/19/97 45/15/98 54/14/99 56/20/100
f 44/95/101 43/91/102 48/86/103 47/90/104
s 2
f 49/79/105 48/86/106 51/87/107 50/80/108
s off
f 52/93/109 51/87/110 56/92/111 55/96/112
s 2
f 33/73/85 41/76/88 38/83/113 31/84/114
f 43/91/115 56/92/116 51/87/107 48/86/106
f 49/79/105 50/80/108 42/75/87 32/74/86
s 1
f 5/50/18 2/55/117 20/56/118 17/51/19
f 9/69/119 13/63/41 26/64/44 23/70/120
f 12/59/42 6/49/17 16/52/20 27/60/43
s off
f 4/97/121 34/98/122 30/99/123 3/100/124
f 1/1/125 29/2/126 37/3/127 21/4/128
f 19/101/129 36/102/130 40/103/131 18/104/132
f 8/105/133 44/106/134 47/107/135 14/108/136
f 25/109/137 52/110/138 55/111/139 24/112/140
f 22/13/141 54/14/142 45/15/143 10/16/144
f 11/25/145 46/26/146 35/27/147 7/28/148
f 15/37/149 39/38/150 53/39/151 28/40/152
f 1/1/153 2/11/154 3/5/155
f 4/53/156 5/50/157 6/49/158 7/54/159
f 8/21/160 9/23/161 10/16/162
f 11/65/163 12/59/164 13/63/165 14/66/166
f 15/57/167 16/52/168 17/51/169 18/58/170
f 19/9/171 20/12/172 21/4/173
f 22/13/174 23/24/175 24/17/176
f 25/67/177 26/64/178 27/60/179 28/68/180
f 29/2/181 30/6/182 31/7/183
f 32/74/184 33/73/185 34/77/186 35/78/187
f 36/10/188 37/3/189 38/8/190
f 39/81/191 40/82/192 41/76/193 42/75/194
f 43/19/195 44/22/196 45/15/197
f 46/89/198 47/90/199 48/86/200 49/79/201
f 50/80/202 51/87/203 52/93/204 53/94/205
f 54/14/206 55/18/207 56/20/208
