# This file uses centimeters as units for non-parametric coordinates.

mtllib baseboard_bathRoom.mtl
g default
v -0.102413 -0.000000 -1.897583
v -0.100000 0.002413 -1.899994
v -0.124136 0.002413 -1.899994
v -0.124136 -0.000000 -1.897583
v -0.100000 0.077587 -1.899994
v -0.102413 0.080000 -1.897583
v -0.124136 0.080000 -1.897583
v -0.124136 0.077587 -1.899994
v -0.102413 0.080000 -1.875870
v -0.100000 0.077587 -1.875870
v -0.102413 0.000000 0.975861
v -0.100000 0.002413 0.975861
v -0.100000 0.002413 -1.875870
v -0.102413 -0.000000 -1.875870
v -0.124136 0.002413 0.975861
v -0.121723 0.000000 0.978279
v -0.121723 -0.000000 -1.878281
v -0.124136 0.002413 -1.875870
v -0.124136 0.077587 0.975861
v -0.121723 0.080000 0.978279
v -0.124136 0.077587 -1.875870
v -0.121723 0.080000 -1.878281
v -0.100000 0.077587 0.975861
v -0.102413 0.080000 0.975861
v -0.102413 0.000000 0.997589
v -0.100000 0.002413 1.000000
v -0.100000 0.077587 1.000000
v -0.102413 0.080000 0.997589
v -0.124136 0.080000 0.997589
v -0.124136 0.077587 1.000000
v -3.975861 0.000000 0.997589
v -3.975861 0.002413 1.000000
v -0.124136 0.002413 1.000000
v -0.124136 0.000000 0.997589
v -3.975861 0.002413 0.975861
v -3.978271 0.000000 0.978279
v -3.975861 0.077587 0.975861
v -3.978271 0.080000 0.978279
v -3.975861 0.077587 1.000000
v -3.975861 0.080000 0.997589
v -3.997589 0.000000 0.997589
v -4.000000 0.002413 1.000000
v -4.000000 0.077587 1.000000
v -3.997589 0.080000 0.997589
v -3.997589 0.080000 -1.897583
v -4.000000 0.077587 -1.899994
v -3.975861 0.077587 -1.899994
v -3.975861 0.080000 -1.897583
v -4.000000 0.002413 -1.899994
v -3.997589 0.000000 -1.897583
v -3.975861 0.000000 -1.897583
v -3.975861 0.002413 -1.899994
v -3.997589 0.080000 0.975861
v -4.000000 0.077587 0.975861
v -4.000000 0.002413 -1.875870
v -3.997589 0.000000 -1.875870
v -3.997589 0.080000 -1.875870
v -4.000000 0.077587 -1.875870
v -4.000000 0.002413 0.975861
v -3.997589 0.000000 0.975861
v -3.975861 0.002413 -1.875870
v -3.978271 0.000000 -1.878281
v -3.978271 0.080000 -1.878281
v -3.975861 0.077587 -1.875870
v -1.980408 0.000000 -1.878281
v -1.977997 0.002413 -1.878281
v -1.980408 0.002413 -1.875870
v -1.980408 0.002413 -1.899994
v -1.977997 0.002413 -1.897583
v -1.980408 0.000000 -1.897583
v -1.980408 0.077587 -1.875870
v -1.977997 0.077587 -1.878281
v -1.980408 0.080000 -1.878281
v -1.980408 0.080000 -1.897583
v -1.977997 0.077587 -1.897583
v -1.980408 0.077587 -1.899994
v -1.019585 -0.000000 -1.897583
v -1.022003 0.002413 -1.897583
v -1.019585 0.002413 -1.899994
v -1.019585 0.002413 -1.875870
v -1.022003 0.002413 -1.878281
v -1.019585 -0.000000 -1.878281
v -1.019585 0.077587 -1.899994
v -1.022003 0.077587 -1.897583
v -1.019585 0.080000 -1.897583
v -1.019585 0.080000 -1.878281
v -1.022003 0.077587 -1.878281
v -1.019585 0.077587 -1.875870
vt 0.399997 0.999245
vt 0.375000 1.000000
vt 0.375000 0.992454
vt 0.399997 -0.000000
vt 0.625000 0.000000
vt 0.375000 0.750000
vt 0.399997 0.999328
vt 0.375000 0.999328
vt 0.375000 0.257546
vt 0.625000 0.242458
vt 0.399997 0.500000
vt 0.375000 0.500000
vt 0.375000 0.250703
vt 0.399997 0.500000
vt 0.375000 0.500000
vt 0.625000 0.000000
vt 0.399997 -0.000000
vt 0.125000 0.007542
vt 0.125000 0.000000
vt 0.367454 0.000000
vt 0.625000 0.995231
vt 0.600177 0.750000
vt 0.625000 0.750000
vt 0.599649 0.750000
vt 0.625000 0.750000
vt 0.625000 0.992454
vt 0.599391 0.750000
vt 0.625000 0.750000
vt 0.625000 0.999328
vt 0.625000 0.500000
vt 0.625000 0.257546
vt 0.625000 0.254769
vt 0.625000 0.500000
vt 0.625000 0.500000
vt 0.625000 0.250672
vt 0.625000 0.242458
vt 0.375000 1.000000
vt 0.375000 0.995231
vt 0.399997 0.250477
vt 0.375000 0.254769
vt 0.399997 0.500000
vt 0.375000 0.500000
vt 0.625000 0.000000
vt 0.399997 -0.000000
vt 0.125000 0.007542
vt 0.125000 0.000000
vt 0.370231 0.000000
vt 0.625000 0.996971
vt 0.625000 0.751830
vt 0.625000 0.253029
vt 0.625000 0.498171
vt 0.625000 0.242458
vt 0.375000 1.000000
vt 0.375000 0.996971
vt 0.399997 0.250303
vt 0.375000 0.253029
vt 0.375000 0.507542
vt 0.399997 0.499817
vt 0.625000 0.499817
vt 0.625000 0.500000
vt 0.625000 0.250302
vt 0.125000 0.007542
vt 0.125183 -0.000000
vt 0.625000 0.742458
vt 0.599945 0.750000
vt 0.625000 0.750000
vt 0.625000 0.999698
vt 0.375000 0.498171
vt 0.126829 0.000000
vt 0.371971 0.000000
vt 0.375000 0.750000
vt 0.399997 0.999698
vt 0.375000 0.999698
vt 0.400268 0.500000
vt 0.375000 0.500000
vt 0.375000 0.250275
vt 0.399997 -0.000000
vt 0.600003 0.000000
vt 0.399997 0.007542
vt 0.374698 0.242458
vt 0.625302 0.007542
vt 0.625302 0.242458
vt 0.399997 0.242458
vt 0.600003 0.242458
vt 0.599945 0.250275
vt 0.399997 -0.000000
vt 0.600003 0.000000
vt 0.399997 0.007542
vt 0.374328 0.242458
vt 0.625672 0.007542
vt 0.625672 0.242458
vt 0.399997 0.242458
vt 0.600003 0.242458
vt 0.599983 0.250703
vt 0.625000 0.007542
vt 0.375000 0.242458
vt 0.399997 0.250755
vt 0.625000 0.250755
vt 0.600003 0.256792
vt 0.399997 0.992454
vt 0.600003 0.993208
vt 0.625000 0.999245
vt 0.375000 0.007542
vt 0.367454 0.242458
vt 0.399997 0.257546
vt 0.600024 0.500000
vt 0.367454 0.007542
vt 0.125000 0.242458
vt 0.400108 0.750000
vt 0.632546 0.242474
vt 0.632546 0.007526
vt 0.875000 0.007542
vt 0.875000 0.242458
vt 0.625000 0.007542
vt 0.375000 0.242458
vt 0.625000 0.250477
vt 0.600003 0.254292
vt 0.399997 0.995231
vt 0.625000 0.999523
vt 0.399997 0.999523
vt 0.375000 0.007542
vt 0.370231 0.242458
vt 0.399882 0.254769
vt 0.600019 0.500000
vt 0.370231 0.007542
vt 0.125000 0.242458
vt 0.399882 0.750000
vt 0.600003 0.995708
vt 0.629769 0.242450
vt 0.629769 0.007550
vt 0.875000 0.007542
vt 0.875000 0.242458
vt 0.625000 0.007542
vt 0.375000 0.242458
vt 0.625000 0.250303
vt 0.600003 0.252726
vt 0.625000 0.507542
vt 0.375000 0.742458
vt 0.399997 0.996971
vt 0.625000 0.999697
vt 0.399997 0.999697
vt 0.375000 0.007542
vt 0.371971 0.242458
vt 0.399997 0.498171
vt 0.600003 0.498353
vt 0.126829 0.007542
vt 0.125000 0.242458
vt 0.399997 0.750183
vt 0.625000 0.750183
vt 0.600003 0.751647
vt 0.399997 0.253029
vt 0.371971 0.007542
vt 0.126829 0.242458
vt 0.399997 0.751830
vt 0.600003 0.997274
vt 0.628029 0.242474
vt 0.628029 0.007526
vt 0.873171 0.007542
vt 0.873171 0.242458
vt 0.600003 0.007542
vt 0.399917 0.250275
vt 0.600003 0.500000
vt 0.400014 0.750000
vt 0.600003 0.999698
vt 0.875000 0.007542
vt 0.875000 0.242458
vt 0.125000 0.007542
vt 0.374698 0.007542
vt 0.125000 0.242458
vt 0.600003 0.007542
vt 0.399996 0.250703
vt 0.600070 0.500000
vt 0.399996 0.750000
vt 0.600003 0.999328
vt 0.875000 0.007542
vt 0.875000 0.242458
vt 0.125000 0.007542
vt 0.374328 0.007542
vt 0.125000 0.242458
vn 0.707187 -0.707026 0.000000
vn 0.707187 -0.707026 0.000000
vn 0.707190 -0.707024 0.000000
vn 0.707190 -0.707024 0.000000
vn 0.000000 -0.706744 -0.707469
vn 0.000000 -0.706744 -0.707469
vn 0.000000 -0.706744 -0.707469
vn 0.000000 -0.706744 -0.707469
vn 0.000000 -0.706744 -0.707469
vn 0.000000 -0.706744 -0.707469
vn 0.707178 0.707035 0.000000
vn 0.707178 0.707035 0.000000
vn 0.707177 0.707037 0.000000
vn 0.707177 0.707037 0.000000
vn 0.000000 0.706757 -0.707456
vn 0.000000 0.706757 -0.707456
vn 0.000000 0.706757 -0.707457
vn 0.000000 0.706757 -0.707457
vn 0.000000 0.706757 -0.707457
vn 0.000000 0.706757 -0.707457
vn 0.707177 0.707037 0.000000
vn 0.707177 0.707037 0.000000
vn 0.707190 -0.707024 0.000000
vn 0.707190 -0.707024 0.000000
vn 0.707189 -0.707025 0.000000
vn 0.707189 -0.707025 0.000000
vn 0.000000 -0.707861 -0.706352
vn 0.000000 -0.707861 -0.706352
vn 0.000000 -0.707861 -0.706352
vn 0.000000 -0.707861 -0.706352
vn -0.707189 -0.707024 0.000000
vn -0.707189 -0.707024 0.000000
vn -0.707189 -0.707024 0.000000
vn -0.707189 -0.707024 0.000000
vn 0.000000 -0.706744 0.707469
vn 0.000000 -0.706744 0.707469
vn 0.000000 -0.706744 0.707469
vn 0.000000 -0.706744 0.707469
vn -0.707176 0.707038 0.000000
vn -0.707176 0.707038 0.000000
vn -0.707176 0.707038 0.000000
vn -0.707176 0.707038 0.000000
vn 0.000000 0.707873 -0.706339
vn 0.000000 0.707874 -0.706339
vn 0.000000 0.707874 -0.706339
vn 0.000000 0.707874 -0.706339
vn 0.000000 0.706756 0.707457
vn 0.000000 0.706756 0.707457
vn 0.000000 0.706756 0.707457
vn 0.000000 0.706756 0.707457
vn 0.707177 0.707037 0.000000
vn 0.707177 0.707037 0.000000
vn 0.000000 -0.706744 0.707469
vn 0.000000 -0.706744 0.707469
vn 0.000000 -0.706744 0.707469
vn 0.000000 -0.706744 0.707469
vn 0.000000 0.706757 0.707456
vn 0.000000 0.706757 0.707456
vn 0.000000 0.706756 0.707457
vn 0.000000 0.706756 0.707457
vn 0.000000 0.706756 0.707457
vn 0.000000 0.706756 0.707457
vn 0.000000 -0.706744 0.707469
vn 0.000000 -0.706744 0.707469
vn 0.000000 -0.706747 0.707466
vn 0.000000 -0.706747 0.707466
vn 0.707483 -0.706730 0.000000
vn 0.707483 -0.706730 0.000000
vn 0.707483 -0.706730 0.000000
vn 0.707483 -0.706730 0.000000
vn 0.707470 0.706744 0.000000
vn 0.707470 0.706744 0.000000
vn 0.707470 0.706744 0.000000
vn 0.707470 0.706744 0.000000
vn 0.000000 0.706760 0.707453
vn 0.000000 0.706760 0.707453
vn -0.707471 -0.706742 0.000000
vn -0.707471 -0.706742 0.000000
vn -0.707478 -0.706736 0.000000
vn -0.707478 -0.706736 0.000000
vn -0.707459 0.706754 0.000000
vn -0.707459 0.706754 0.000000
vn -0.707465 0.706749 0.000000
vn -0.707465 0.706749 0.000000
vn -0.707464 0.706749 0.000000
vn -0.707464 0.706749 0.000000
vn -0.707465 0.706749 0.000000
vn -0.707465 0.706749 0.000000
vn 0.000000 0.706760 -0.707453
vn 0.000000 0.706760 -0.707453
vn 0.000000 0.706757 -0.707457
vn 0.000000 0.706757 -0.707457
vn 0.000000 0.706757 -0.707457
vn 0.000000 0.706757 -0.707457
vn -0.707473 -0.706740 0.000000
vn -0.707473 -0.706740 0.000000
vn -0.707478 -0.706736 0.000000
vn -0.707478 -0.706736 0.000000
vn -0.000000 -0.706747 -0.707466
vn -0.000000 -0.706747 -0.707466
vn -0.000000 -0.706744 -0.707469
vn -0.000000 -0.706744 -0.707469
vn -0.000000 -0.706744 -0.707469
vn -0.000000 -0.706744 -0.707469
vn 0.000000 -0.706744 0.707469
vn 0.000000 -0.706744 0.707469
vn 0.000000 -0.706744 0.707469
vn 0.000000 -0.706744 0.707469
vn 0.000000 0.706757 0.707456
vn 0.000000 0.706757 0.707456
vn 0.000000 0.706757 0.707456
vn 0.000000 0.706757 0.707456
vn 0.707467 -0.706746 0.000000
vn 0.707467 -0.706746 0.000000
vn 0.707467 -0.706746 0.000000
vn 0.707467 -0.706746 0.000000
vn 0.707123 0.000000 0.707090
vn 0.707123 0.000000 0.707090
vn 0.707123 0.000000 0.707090
vn 0.707123 0.000000 0.707090
vn 0.707123 0.000000 -0.707090
vn 0.707123 0.000000 -0.707090
vn 0.707123 0.000000 -0.707090
vn 0.707123 0.000000 -0.707090
vn 0.707453 0.706760 0.000000
vn 0.707453 0.706760 0.000000
vn 0.707453 0.706760 0.000000
vn 0.707453 0.706760 0.000000
vn -0.706351 -0.707862 0.000000
vn -0.706351 -0.707862 0.000000
vn -0.706351 -0.707862 0.000000
vn -0.706351 -0.707862 0.000000
vn -0.706005 0.000000 -0.708207
vn -0.706005 0.000000 -0.708207
vn -0.706005 0.000000 -0.708207
vn -0.706005 0.000000 -0.708207
vn -0.706005 0.000000 0.708207
vn -0.706005 0.000000 0.708207
vn -0.706005 0.000000 0.708207
vn -0.706005 0.000000 0.708207
vn -0.706337 0.707876 0.000000
vn -0.706337 0.707876 0.000000
vn -0.706337 0.707876 0.000000
vn -0.706337 0.707876 0.000000
vn 0.000000 0.000000 -1.000000
vn 0.000000 0.000000 -1.000000
vn 0.000000 0.000000 -1.000000
vn 0.000000 0.000000 -1.000000
vn 0.000000 1.000000 0.000000
vn 0.000000 1.000000 0.000000
vn 0.000000 1.000000 0.000000
vn 0.000000 1.000000 0.000000
vn 0.000000 -1.000000 0.000000
vn 0.000000 -1.000000 0.000000
vn 0.000000 -1.000000 0.000000
vn 0.000000 -1.000000 0.000000
vn 1.000000 0.000000 0.000000
vn 1.000000 0.000000 0.000000
vn 1.000000 0.000000 0.000000
vn 1.000000 0.000000 0.000000
vn 0.000000 1.000000 -0.000000
vn 0.000000 1.000000 0.000000
vn 1.000000 0.000000 0.000000
vn 1.000000 0.000000 0.000000
vn 0.000000 -1.000000 0.000000
vn 0.000000 -1.000000 0.000000
vn -1.000000 0.000000 0.000000
vn -1.000000 0.000000 0.000000
vn -1.000000 0.000000 0.000000
vn -1.000000 0.000000 0.000000
vn 1.000000 0.000000 0.000000
vn 1.000000 0.000000 0.000000
vn 0.000000 1.000000 0.000000
vn 0.000000 1.000000 -0.000000
vn 0.000000 -1.000000 0.000000
vn 0.000000 -1.000000 0.000000
vn 0.000000 0.000000 1.000000
vn 0.000000 0.000000 1.000000
vn 0.000000 0.000000 1.000000
vn 0.000000 0.000000 1.000000
vn 0.000000 1.000000 -0.000000
vn 0.000000 1.000000 -0.000000
vn 0.000000 0.000000 1.000000
vn 0.000000 0.000000 1.000000
vn 0.000000 -1.000000 0.000000
vn 0.000000 -1.000000 -0.000000
vn 0.000000 0.000000 -1.000000
vn 0.000000 0.000000 -1.000000
vn 0.000000 0.000000 -1.000000
vn 0.000000 0.000000 -1.000000
vn 0.000000 0.000000 1.000000
vn 0.000000 0.000000 1.000000
vn 0.000000 1.000000 0.000000
vn 0.000000 1.000000 0.000000
vn 0.000000 0.000000 -1.000000
vn 0.000000 0.000000 -1.000000
vn 0.000000 0.000000 -1.000000
vn 0.000000 0.000000 -1.000000
vn 0.000000 -1.000000 -0.000000
vn 0.000000 -1.000000 0.000000
vn -1.000000 0.000000 0.000000
vn -1.000000 0.000000 0.000000
vn -1.000000 0.000000 0.000000
vn -1.000000 0.000000 0.000000
vn 0.000000 1.000000 0.000000
vn 0.000000 1.000000 0.000000
vn 0.000000 1.000000 0.000000
vn 0.000000 1.000000 0.000000
vn -1.000000 0.000000 0.000000
vn -1.000000 0.000000 0.000000
vn -1.000000 0.000000 0.000000
vn -1.000000 0.000000 0.000000
vn 0.000000 -1.000000 -0.000000
vn 0.000000 -1.000000 -0.000000
vn 0.000000 -1.000000 -0.000000
vn 0.000000 -1.000000 -0.000000
vn 1.000000 0.000000 0.000000
vn 1.000000 0.000000 0.000000
vn 1.000000 0.000000 0.000000
vn 1.000000 0.000000 0.000000
vn 1.000000 0.000000 0.000000
vn 1.000000 0.000000 0.000000
vn 1.000000 0.000000 0.000000
vn 1.000000 0.000000 0.000000
vn 0.000000 1.000000 0.000000
vn 0.000000 1.000000 0.000000
vn 0.000000 -1.000000 -0.000000
vn 0.000000 -1.000000 -0.000000
vn 0.000000 0.000000 -1.000000
vn 0.000000 0.000000 -1.000000
vn 0.000000 0.000000 1.000000
vn 0.000000 0.000000 1.000000
vn 0.000000 0.000000 1.000000
vn 0.000000 0.000000 1.000000
vn -1.000000 0.000000 0.000000
vn -1.000000 0.000000 0.000000
vn -1.000000 0.000000 0.000000
vn -1.000000 0.000000 0.000000
vn 0.000000 1.000000 0.000000
vn 0.000000 1.000000 0.000000
vn 0.000000 -1.000000 0.000000
vn 0.000000 -1.000000 0.000000
vn 0.000000 0.000000 1.000000
vn 0.000000 0.000000 1.000000
vn 0.000000 0.000000 1.000000
vn 0.000000 0.000000 1.000000
vn 0.000000 0.000000 -1.000000
vn 0.000000 0.000000 -1.000000
vn 0.577523 -0.576968 0.577560
vn 0.577523 -0.576968 0.577560
vn 0.577523 -0.576968 0.577560
vn 0.577523 -0.576968 -0.577560
vn 0.577523 -0.576968 -0.577560
vn 0.577523 -0.576968 -0.577560
vn 0.577530 0.576976 0.577545
vn 0.577530 0.576976 0.577545
vn 0.577530 0.576976 0.577545
vn 0.577530 0.576976 -0.577545
vn 0.577530 0.576976 -0.577545
vn 0.577530 0.576976 -0.577545
vn -0.576314 -0.577560 -0.578175
vn -0.576314 -0.577560 -0.578175
vn -0.576314 -0.577560 -0.578175
vn -0.576314 -0.577560 0.578175
vn -0.576314 -0.577560 0.578175
vn -0.576314 -0.577560 0.578175
vn -0.576321 0.577567 -0.578161
vn -0.576321 0.577567 -0.578161
vn -0.576321 0.577567 -0.578161
vn -0.576321 0.577567 0.578161
vn -0.576321 0.577567 0.578161
vn -0.576321 0.577567 0.578161
s 1
g baseBoard_bathRoom
usemtl initialShadingGroup
f 1/1/1 2/2/2 13/3/3 14/100/4
s 2
f 2/103/5 1/4/6 4/5/7 3/95/8
f 3/6/8 4/173/7 77/7/9 79/8/10
s 3
f 5/96/11 6/97/12 9/105/13 10/9/14
s 4
f 6/97/15 5/96/16 8/10/17 7/98/18
f 7/11/18 8/12/17 83/13/19 85/171/20
s 3
f 10/9/14 9/105/13 24/14/21 23/15/22
s 1
f 11/16/23 12/114/24 26/121/25 25/17/26
f 12/18/24 11/19/23 14/20/4 13/107/3
s off
f 15/21/27 16/128/28 36/22/29 35/23/30
f 16/24/31 15/25/32 18/26/33 17/101/34
f 17/27/35 18/28/36 80/29/37 82/174/38
f 19/30/39 20/106/40 22/99/41 21/31/42
f 20/117/43 19/32/44 37/33/45 38/124/46
f 21/34/47 22/172/48 86/94/49 88/35/50
s 3
f 23/36/22 24/116/21 28/39/51 27/115/52
s 5
f 25/120/53 26/37/54 33/38/55 34/118/56
s 6
f 27/115/57 28/39/58 29/123/59 30/40/60
f 30/40/60 29/123/59 40/41/61 39/42/62
s 5
f 31/43/63 32/133/64 42/142/65 41/44/66
f 32/45/64 31/46/63 34/47/56 33/125/55
s off
f 35/48/67 36/155/68 62/150/69 61/49/70
f 38/136/71 37/50/72 64/51/73 63/145/74
s 6
f 39/52/62 40/135/61 44/55/75 43/134/76
s 7
f 41/141/77 42/53/78 59/54/79 60/139/80
s 8
f 43/134/81 44/55/82 53/151/83 54/56/84
f 45/58/85 46/57/86 58/68/87 57/144/88
s 9
f 46/57/89 45/58/90 48/59/91 47/137/92
f 47/60/92 48/162/91 74/85/93 76/61/94
s 7
f 49/62/95 50/63/96 56/69/97 55/146/98
s 10
f 50/148/99 49/138/100 52/64/101 51/149/102
f 51/65/102 52/66/101 68/67/103 70/164/104
s 8
f 54/56/84 53/151/83 57/144/88 58/68/87
s 7
f 55/146/98 56/69/97 60/70/80 59/152/79
s off
f 61/71/105 62/163/106 65/72/107 67/73/108
f 63/74/109 64/75/110 71/76/111 73/161/112
f 66/79/113 65/77/114 70/78/115 69/160/116
f 67/168/117 66/79/118 72/83/119 71/80/120
f 69/160/121 68/81/122 76/82/123 75/84/124
f 73/161/125 72/83/126 75/84/127 74/85/128
f 78/88/129 77/86/130 82/87/131 81/170/132
f 79/178/133 78/88/134 84/92/135 83/89/136
f 81/170/137 80/90/138 88/91/139 87/93/140
f 85/171/141 84/92/142 87/93/143 86/94/144
s 11
f 2/103/145 3/95/146 8/10/147 5/96/148
s 12
f 6/97/149 7/98/150 22/99/151 9/105/152
s 13
f 14/100/153 17/101/154 4/102/155 1/1/156
s 14
f 13/107/157 2/103/158 5/96/159 10/104/160
s 12
f 9/105/152 22/99/151 20/106/161 24/14/162
s 14
f 12/18/163 13/107/157 10/104/160 23/108/164
s 13
f 11/109/165 16/24/166 17/101/154 14/100/153
s off
f 21/110/167 18/111/168 15/112/169 19/113/170
s 14
f 26/121/171 12/114/163 23/36/164 27/115/172
s 12
f 28/39/173 24/116/162 20/117/161 29/123/174
s 13
f 34/118/175 16/128/166 11/119/165 25/120/176
s 15
f 33/125/177 26/121/178 27/115/179 30/122/180
s 12
f 29/123/174 20/117/161 38/124/181 40/41/182
s 15
f 32/45/183 33/125/177 30/122/180 39/126/184
s 13
f 31/127/185 36/22/186 16/128/166 34/118/175
s off
f 19/129/187 15/130/188 35/131/189 37/132/190
s 15
f 42/142/191 32/133/183 39/52/184 43/134/192
s 12
f 44/55/193 40/135/182 38/136/181 53/151/194
s 16
f 46/57/195 47/137/196 52/64/197 49/138/198
s 13
f 60/139/199 36/155/186 31/140/185 41/141/200
s 17
f 59/152/201 42/142/202 43/134/203 54/143/204
s 12
f 57/144/205 63/145/206 48/59/207 45/58/208
s 17
f 49/62/209 55/146/210 58/153/211 46/147/212
s 13
f 50/148/213 51/149/214 62/150/215 56/154/216
s 12
f 53/151/194 38/136/181 63/145/206 57/144/205
s 17
f 55/146/210 59/152/201 54/143/204 58/153/211
s 13
f 56/154/216 62/150/215 36/155/186 60/139/199
s off
f 37/156/217 35/157/218 61/158/219 64/159/220
f 66/79/221 69/160/222 75/84/223 72/83/224
s 12
f 73/161/225 74/85/226 48/162/207 63/74/206
s 13
f 62/163/215 51/65/214 70/164/227 65/72/228
s 16
f 68/81/229 52/165/197 47/166/196 76/82/230
s off
f 61/167/231 67/168/232 71/80/233 64/169/234
f 78/88/235 81/170/236 87/93/237 84/92/238
s 12
f 85/171/239 86/94/240 22/172/151 7/11/150
s 13
f 4/173/155 17/27/154 82/174/241 77/7/242
s off
f 80/90/243 18/175/244 21/176/245 88/91/246
s 11
f 3/177/146 79/178/247 83/89/248 8/179/147
s off
f 65/77/249 66/79/250 67/168/251
f 68/81/252 69/160/253 70/78/254
f 71/80/255 72/83/256 73/161/257
f 74/85/258 75/84/259 76/82/260
f 77/86/261 78/88/262 79/178/263
f 80/90/264 81/170/265 82/87/266
f 83/89/267 84/92/268 85/171/269
f 86/94/270 87/93/271 88/91/272
