# This file uses centimeters as units for non-parametric coordinates.

mtllib doorway.mtl
g default
v 2.978012 2.098450 7.113403
v 2.978012 2.100006 7.111847
v 3.000000 2.098450 7.111847
v 2.998444 2.100006 7.111847
v 2.998444 2.098450 7.113403
v 2.978012 2.100006 6.995026
v 2.978012 2.098450 6.993408
v 2.998444 2.098450 6.993408
v 2.998444 2.100006 6.995026
v 3.000000 2.098450 6.995026
v 2.978012 0.000000 7.111847
v 2.979538 0.000000 7.113403
v 2.975807 2.078003 7.113403
v 2.978012 2.078003 7.111847
v 2.979538 2.078003 7.113403
v 2.978012 2.080200 7.113403
v 3.000000 0.000000 7.111847
v 2.998444 0.000000 7.113403
v 2.998444 2.078003 7.113403
v 3.000000 2.078003 7.111847
v 3.000000 2.078003 6.995026
v 2.998444 2.078003 6.993408
v 2.979538 0.000000 6.993408
v 2.978012 0.000000 6.995026
v 2.979538 2.079559 6.993408
v 2.978012 2.078003 6.995026
v 3.000000 0.000000 6.995026
v 2.998444 0.000000 6.993408
v 2.022003 2.098450 7.113403
v 2.022003 2.100006 7.111847
v 2.022003 2.078003 6.995026
v 2.020447 2.079559 6.993408
v 2.022003 2.100006 6.995026
v 2.022003 2.098450 6.993408
v 2.001556 2.098450 7.113403
v 2.001556 2.100006 7.111847
v 2.000000 2.098450 7.111847
v 2.000000 2.098450 6.995026
v 2.001556 2.100006 6.995026
v 2.001556 2.098450 6.993408
v 2.000000 0.000000 7.111847
v 2.001556 0.000000 7.113403
v 2.000000 2.078003 7.111847
v 2.001556 2.078003 7.113403
v 2.020447 2.078003 7.113403
v 2.022003 2.078003 7.111847
v 2.024200 2.078003 7.113403
v 2.022003 2.080200 7.113403
v 2.022003 0.000000 7.111847
v 2.020447 0.000000 7.113403
v 2.001556 2.078003 6.993408
v 2.000000 2.078003 6.995026
v 2.022003 0.000000 6.995026
v 2.020447 0.000000 6.993408
v 2.001556 0.000000 6.993408
v 2.000000 0.000000 6.995026
vt 0.375000 0.753240
vt 0.607324 0.750000
vt 0.625000 0.753241
vt 0.625000 0.996759
vt 0.607324 1.000000
vt 0.392676 1.000000
vt 0.375000 0.996759
vt 0.625000 0.753241
vt 0.625000 0.996759
vt 0.607324 1.000000
vt 0.392676 1.000000
vt 0.375000 0.996759
vt 0.607366 0.000000
vt 0.628241 0.250000
vt 0.375000 0.253240
vt 0.607324 0.249690
vt 0.625000 0.253241
vt 0.625000 0.750000
vt 0.607366 0.500000
vt 0.625000 0.500000
vt 0.375000 0.500310
vt 0.607324 0.496759
vt 0.625000 0.500310
vt 0.625000 0.504387
vt 0.392770 -0.000000
vt 0.628242 0.000000
vt 0.875000 0.245613
vt 0.875000 0.000000
vt 0.125000 0.000000
vt 0.128242 0.000000
vt 0.128241 0.245613
vt 0.125000 0.245613
vt 0.393053 0.750000
vt 0.375000 0.750000
vt 0.375000 0.500000
vt 0.625000 0.249521
vt 0.625000 0.506773
vt 0.607324 0.750000
vt 0.625000 0.496759
vt 0.375000 0.253241
vt 0.392676 0.253241
vt 0.392676 0.496759
vt 0.375000 0.496759
vt 0.375000 0.500479
vt 0.392676 0.500479
vt 0.375000 0.506773
vt 0.392770 -0.000000
vt 0.628241 0.243227
vt 0.628242 0.000000
vt 0.375000 0.753241
vt 0.607325 0.253240
vt 0.375000 0.496759
vt 0.607324 0.500310
vt 0.607384 0.504387
vt 0.392676 0.504077
vt 0.628241 0.245613
vt 0.871759 0.249690
vt 0.371758 0.000000
vt 0.371759 0.245613
vt 0.607384 0.000000
vt 0.607324 0.245613
vt 0.871758 0.000000
vt 0.871759 0.245613
vt 0.392676 0.750000
vt 0.392606 0.500000
vt 0.607324 0.750000
vt 0.628240 -0.000000
vt 0.871760 0.000000
vt 0.871759 0.250000
vt 0.128240 -0.000000
vt 0.371760 0.000000
vt 0.371759 0.250000
vt 0.128241 0.250000
vt 0.392676 0.243227
vt 0.625000 0.243904
vt 0.392676 0.249521
vt 0.625000 0.253241
vt 0.625000 0.500479
vt 0.607324 0.506294
vt 0.128241 0.243227
vt 0.371759 0.249521
vt 0.128241 0.249521
vt 0.392676 0.506773
vt 0.392676 0.750000
vt 0.128242 0.000000
vt 0.371758 0.000000
vt 0.371759 0.243227
vt 0.607384 0.000000
vt 0.607324 0.243227
vt 0.871758 0.000000
vt 0.871759 0.243227
vt 0.375000 0.000588
vt 0.400005 0.000000
vt 0.607324 0.250000
vt 0.392676 0.245613
vt 0.375000 0.249690
vt 0.628241 0.249690
vt 0.625000 0.496759
vt 0.375000 0.245613
vt 0.375000 0.246052
vt 0.375000 0.250000
vt 0.375000 0.249425
vt 0.399997 0.250000
vn 0.000000 -1.000000 0.000000
vn 0.000000 -1.000000 0.000000
vn 0.000000 -1.000000 0.000000
vn 0.000000 -1.000000 0.000000
vn 0.000000 -1.000000 0.000000
vn 0.000000 -1.000000 0.000000
vn 0.000000 -1.000000 0.000000
vn 0.000000 -1.000000 0.000000
vn 0.000000 -1.000000 0.000000
vn 0.000000 -1.000000 0.000000
vn 0.000000 -1.000000 0.000000
vn 0.000000 -1.000000 0.000000
vn 0.000000 -1.000000 0.000000
vn 0.000000 -1.000000 0.000000
vn 0.000000 -1.000000 0.000000
vn 0.000000 -1.000000 0.000000
vn 0.000000 0.707097 0.707116
vn 0.000000 0.707097 0.707116
vn 0.000000 0.707097 0.707117
vn 0.000000 0.707097 0.707117
vn 0.000000 0.707112 0.707102
vn 0.000000 0.707112 0.707102
vn 0.707169 0.000000 0.707045
vn 0.707169 0.000000 0.707045
vn 0.707076 0.000000 0.707137
vn 0.707076 0.000000 0.707137
vn 0.707100 0.707114 0.000000
vn 0.707100 0.707114 0.000000
vn 0.707100 0.707114 0.000000
vn 0.707100 0.707114 0.000000
vn 0.000000 0.720562 -0.693390
vn 0.000000 0.720562 -0.693390
vn 0.000000 0.720562 -0.693391
vn 0.000000 0.720562 -0.693391
vn 0.000000 0.720577 -0.693375
vn 0.000000 0.720577 -0.693375
vn 0.720513 0.000000 -0.693441
vn 0.720513 0.000000 -0.693441
vn 0.720543 0.000000 -0.693411
vn 0.720543 0.000000 -0.693411
vn -0.714042 0.000000 0.700103
vn -0.714042 0.000000 0.700103
vn -0.714042 0.000000 0.700103
vn -0.714042 0.000000 0.700103
vn 0.707075 0.000000 0.707138
vn 0.707075 0.000000 0.707138
vn 0.720543 0.000000 -0.693410
vn 0.720543 0.000000 -0.693410
vn -0.727431 0.000000 -0.686181
vn -0.727431 0.000000 -0.686181
vn -0.727431 0.000000 -0.686181
vn -0.727431 0.000000 -0.686181
vn 0.000000 -0.720565 -0.693387
vn 0.000000 -0.720565 -0.693387
vn 0.000000 -0.720565 -0.693387
vn 0.000000 -0.720565 -0.693387
vn 0.000000 0.707086 0.707127
vn 0.000000 0.707086 0.707127
vn 0.720610 0.000000 -0.693341
vn 0.720610 0.000000 -0.693341
vn 0.720610 0.000000 -0.693341
vn 0.720610 0.000000 -0.693341
vn 0.000000 0.720551 -0.693402
vn 0.000000 0.720551 -0.693402
vn -0.707169 0.000000 0.707045
vn -0.707169 0.000000 0.707045
vn -0.707076 0.000000 0.707137
vn -0.707076 0.000000 0.707137
vn -0.707100 0.707114 0.000000
vn -0.707100 0.707114 0.000000
vn -0.707100 0.707114 0.000000
vn -0.707100 0.707114 0.000000
vn -0.720513 0.000000 -0.693441
vn -0.720513 0.000000 -0.693441
vn -0.720543 0.000000 -0.693411
vn -0.720543 0.000000 -0.693411
vn -0.707075 0.000000 0.707138
vn -0.707075 0.000000 0.707138
vn 0.707075 0.000000 0.707138
vn 0.707075 0.000000 0.707138
vn 0.707075 0.000000 0.707138
vn 0.707075 0.000000 0.707138
vn -0.720543 0.000000 -0.693410
vn -0.720543 0.000000 -0.693410
vn 0.000000 1.000000 0.000000
vn 0.000000 1.000000 0.000000
vn 0.000000 1.000000 0.000000
vn 0.000000 1.000000 0.000000
vn 0.000000 0.000000 -1.000000
vn 0.000000 0.000000 -1.000000
vn 0.000000 0.000000 -1.000000
vn 0.000000 0.000000 -1.000000
vn 1.000000 0.000000 0.000000
vn 1.000000 0.000000 0.000000
vn 1.000000 0.000000 0.000000
vn 1.000000 0.000000 0.000000
vn -1.000000 0.000000 0.000000
vn -1.000000 0.000000 0.000000
vn -1.000000 0.000000 0.000000
vn -1.000000 0.000000 0.000000
vn 0.000000 0.000000 1.000000
vn 0.000000 0.000000 1.000000
vn 0.000000 0.000000 1.000000
vn 0.000000 0.000000 1.000000
vn 1.000000 0.000000 0.000000
vn 1.000000 0.000000 0.000000
vn 0.000000 0.000000 -1.000000
vn 0.000000 0.000000 -1.000000
vn 0.000000 0.000000 -1.000000
vn 0.000001 0.000000 -1.000000
vn 0.000000 1.000000 0.000000
vn 0.000000 1.000000 0.000000
vn 0.000000 -1.000000 0.000001
vn 0.000000 -1.000000 0.000001
vn 0.000000 -1.000000 0.000001
vn 0.000000 -1.000000 0.000001
vn 0.000000 -1.000000 0.000001
vn 0.000000 -1.000000 0.000001
vn 0.000000 0.000000 1.000000
vn 0.000000 0.000000 1.000000
vn 0.000000 0.000000 1.000000
vn 0.000000 0.000000 1.000000
vn 0.000000 0.000000 1.000000
vn 0.000000 1.000000 0.000000
vn 0.000000 1.000000 0.000000
vn 0.000039 0.000000 -1.000000
vn 0.000000 0.000000 -1.000000
vn -1.000000 0.000000 0.000000
vn -1.000000 0.000000 0.000000
vn -1.000000 0.000000 0.000000
vn -1.000000 0.000000 0.000000
vn 0.000000 0.000000 -1.000000
vn 0.000000 0.000000 -1.000000
vn -1.000000 0.000000 0.000000
vn -1.000000 0.000000 0.000000
vn 0.000000 0.000000 1.000000
vn 0.000000 0.000000 1.000000
vn 1.000000 0.000000 0.000000
vn 1.000000 0.000000 0.000000
vn 1.000000 0.000000 0.000000
vn 1.000000 0.000000 0.000000
vn 0.000000 0.000000 1.000000
vn 0.000000 0.000000 1.000000
vn 0.000000 0.000000 1.000000
vn 0.000000 0.000000 1.000000
vn 0.000000 0.000000 1.000000
vn 0.577498 0.577276 0.577276
vn 0.577498 0.577276 0.577276
vn 0.577498 0.577276 0.577276
vn 0.584468 0.584684 -0.562621
vn 0.584468 0.584684 -0.562621
vn 0.584468 0.584684 -0.562621
vn 0.000000 -0.578033 0.816014
vn 0.000000 -0.578033 0.816014
vn 0.000000 -0.578033 0.816014
vn 0.000000 -0.578033 0.816014
vn -0.577498 0.577276 0.577276
vn -0.577498 0.577276 0.577276
vn -0.577498 0.577276 0.577276
vn -0.584468 0.584684 -0.562621
vn -0.584468 0.584684 -0.562621
vn -0.584468 0.584684 -0.562621
vn 0.000000 -0.578017 0.816024
vn 0.000000 -0.578017 0.816025
vn 0.000000 -0.578017 0.816025
vn 0.000000 -0.578017 0.816025
s off
g doorway_frontDoor
usemtl initialShadingGroup
f 24/1/1 23/64/2 28/2/3 27/3/4 17/4/5 18/5/6 12/6/7 11/7/8
f 56/50/9 55/84/10 54/38/11 53/8/12 49/9/13 50/10/14 42/11/15 41/12/16
s 1
f 1/13/17 2/67/18 30/14/19 29/94/20
f 2/15/18 1/96/17 5/16/21 4/51/22
s 2
f 3/97/23 5/16/24 19/61/25 20/56/26
s off
f 4/51/27 3/17/28 10/98/29 9/22/30
s 3
f 6/18/31 7/66/32 34/19/33 33/20/34
f 7/21/32 6/52/31 9/22/35 8/53/36
s 4
f 8/53/37 10/23/38 21/24/39 22/54/40
s off
f 11/58/41 12/25/42 15/95/43 14/59/44
s 2
f 18/60/45 17/26/46 20/56/26 19/61/25
s 4
f 22/27/40 21/63/39 27/62/47 28/28/48
s off
f 23/29/49 24/30/50 26/31/51 25/32/52
f 25/33/53 26/34/54 31/35/55 32/65/56
s 1
f 29/36/20 30/77/19 36/41/57 35/76/58
s off
f 32/79/59 31/37/60 53/8/61 54/38/62
s 3
f 33/39/34 34/78/33 40/45/63 39/42/64
s 5
f 35/76/65 37/81/66 43/87/67 44/74/68
s off
f 37/40/69 36/41/70 39/42/71 38/43/72
s 6
f 38/44/73 40/45/74 51/83/75 52/46/76
s 5
f 41/86/77 42/47/78 44/74/68 43/87/67
s off
f 46/48/79 45/89/80 50/88/81 49/49/82
s 6
f 52/46/76 51/83/75 55/84/83 56/50/84
s 7
f 2/15/85 4/51/86 9/22/87 6/52/88
s 8
f 7/21/89 8/53/90 22/54/91 25/55/92
s 9
f 20/56/93 21/63/94 10/57/95 3/97/96
s off
f 26/31/97 24/30/98 11/58/99 14/59/100
s 10
f 15/95/101 12/25/102 18/60/103 19/61/104
s 9
f 20/56/93 17/26/105 27/62/106 21/63/94
s 8
f 25/55/92 22/54/91 28/2/107 23/64/108
f 32/65/109 34/19/110 7/66/89 25/33/92
s 7
f 2/67/85 6/68/88 33/69/111 30/14/112
s off
f 26/70/113 14/71/114 13/92/115 47/102/116 46/72/117 31/73/118
s 10
f 44/74/119 45/89/120 48/75/121 29/36/122 35/76/123
s 7
f 36/41/124 30/77/112 33/39/111 39/42/125
s 8
f 40/45/126 34/78/110 32/79/109 51/83/127
s 12
f 52/80/128 43/87/129 37/81/130 38/82/131
s 8
f 51/83/127 32/79/109 54/38/132 55/84/133
s 12
f 52/80/128 56/85/134 41/86/135 43/87/129
s 10
f 44/74/119 42/47/136 50/88/137 45/89/120
s off
f 46/48/138 49/49/139 53/90/140 31/91/141
s 10
f 13/92/142 16/93/143 1/13/144 29/94/122 48/103/121 47/102/145
f 16/100/143 15/95/101 19/61/104 5/16/146 1/96/144
s off
f 3/97/147 4/51/148 5/16/149
f 8/53/150 9/22/151 10/98/152
f 13/99/153 14/59/154 15/95/155 16/100/156
f 35/76/157 36/41/158 37/81/159
f 38/43/160 39/42/161 40/45/162
f 45/101/163 46/72/164 47/102/165 48/103/166
