# This file uses centimeters as units for non-parametric coordinates.

mtllib wall_10.mtl
g default
v 1.000000 0.000000 7.099976
v 4.100006 0.000000 7.099976
v 1.000000 2.500000 7.099976
v 4.100006 2.500000 7.099976
v 1.000000 2.500000 7.000000
v 4.100006 2.500000 7.000000
v 1.000000 0.000000 7.000000
v 4.100006 0.000000 7.000000
v 2.000000 2.500000 7.000000
v 2.000000 0.000000 7.000000
v 2.000000 0.000000 7.099976
v 2.000000 2.500000 7.099976
v 3.000000 2.500000 7.000000
v 3.000000 0.000000 7.000000
v 3.000000 0.000000 7.099976
v 3.000000 2.500000 7.099976
v 1.000000 2.100006 7.000000
v 1.000000 2.100006 7.099976
v 2.000000 2.100006 7.099976
v 3.000000 2.100006 7.099976
v 4.100006 2.100006 7.099976
v 4.100006 2.100006 7.000000
v 3.000000 2.100006 7.000000
v 2.000000 2.100006 7.000000
vt -1.050003 1.350006
vt -0.050003 1.350006
vt -0.050003 1.750000
vt -1.050003 1.750000
vt -6.099976 1.500000
vt -6.099976 2.500000
vt -6.000000 2.500000
vt -6.000000 1.500000
vt -1.050003 1.750000
vt -0.050003 1.750000
vt -0.050003 1.350006
vt -1.050003 1.350006
vt -1.050003 -0.750000
vt -0.050003 -0.750000
vt -0.050003 -0.750000
vt -1.050003 -0.750000
vt 2.050003 1.350006
vt 2.050003 1.350006
vt 2.050003 1.750000
vt 2.050003 1.750000
vt 0.949997 1.750000
vt 0.949997 1.350006
vt 0.949997 1.350006
vt 0.949997 1.750000
vt -6.099976 3.500000
vt -6.000000 3.500000
vt 0.949997 -0.750000
vt 0.949997 -0.750000
vt 2.050003 -0.750000
vt 2.050003 -0.750000
vt -6.099976 4.600006
vt -6.000000 4.600006
vn 0.000000 0.000000 1.000000
vn 0.000000 0.000000 1.000000
vn 0.000000 0.000000 1.000000
vn 0.000000 0.000000 1.000000
vn 0.000000 1.000000 0.000000
vn 0.000000 1.000000 0.000000
vn 0.000000 1.000000 0.000000
vn 0.000000 1.000000 0.000000
vn 0.000000 0.000000 -1.000000
vn 0.000000 0.000000 -1.000000
vn 0.000000 0.000000 -1.000000
vn 0.000000 0.000000 -1.000000
vn 0.000000 -1.000000 0.000000
vn 0.000000 -1.000000 0.000000
vn 0.000000 -1.000000 0.000000
vn 0.000000 -1.000000 0.000000
vn 1.000000 0.000000 0.000000
vn 1.000000 0.000000 0.000000
vn 1.000000 0.000000 0.000000
vn 1.000000 0.000000 0.000000
vn -1.000000 0.000000 0.000000
vn -1.000000 0.000000 0.000000
vn -1.000000 0.000000 0.000000
vn -1.000000 0.000000 0.000000
vn 0.000000 0.000000 -1.000000
vn 0.000000 0.000000 -1.000000
vn 0.000000 0.000000 -1.000000
vn 0.000000 0.000000 -1.000000
vn 0.000000 0.000000 1.000000
vn 0.000000 0.000000 1.000000
vn 0.000000 0.000000 1.000000
vn 0.000000 0.000000 1.000000
vn 0.000000 1.000000 0.000000
vn 0.000000 1.000000 0.000000
vn 0.000000 1.000000 0.000000
vn 0.000000 1.000000 0.000000
vn 0.000000 0.000000 -1.000000
vn 0.000000 0.000000 -1.000000
vn 0.000000 0.000000 -1.000000
vn 0.000000 0.000000 -1.000000
vn 0.000000 -1.000000 0.000000
vn 0.000000 -1.000000 0.000000
vn 0.000000 -1.000000 0.000000
vn 0.000000 -1.000000 0.000000
vn 0.000000 0.000000 1.000000
vn 0.000000 0.000000 1.000000
vn 0.000000 0.000000 1.000000
vn 0.000000 0.000000 1.000000
vn 0.000000 1.000000 0.000000
vn 0.000000 1.000000 0.000000
vn 0.000000 1.000000 0.000000
vn 0.000000 1.000000 0.000000
vn -1.000000 0.000000 0.000000
vn -1.000000 0.000000 0.000000
vn -1.000000 0.000000 0.000000
vn -1.000000 0.000000 0.000000
vn 0.000000 0.000000 1.000000
vn 0.000000 0.000000 1.000000
vn 0.000000 0.000000 1.000000
vn 0.000000 0.000000 1.000000
vn 0.000000 0.000000 1.000000
vn 0.000000 0.000000 1.000000
vn 0.000000 0.000000 1.000000
vn 0.000000 0.000000 1.000000
vn 1.000000 0.000000 0.000000
vn 1.000000 0.000000 0.000000
vn 1.000000 0.000000 0.000000
vn 1.000000 0.000000 0.000000
vn 0.000000 0.000000 -1.000000
vn 0.000000 0.000000 -1.000000
vn 0.000000 0.000000 -1.000000
vn 0.000000 0.000000 -1.000000
vn 0.000000 0.000000 -1.000000
vn 0.000000 0.000000 -1.000000
vn 0.000000 0.000000 -1.000000
vn 0.000000 0.000000 -1.000000
vn 0.000000 -1.000000 0.000000
vn 0.000000 -1.000000 0.000000
vn 0.000000 -1.000000 0.000000
vn 0.000000 -1.000000 0.000000
vn 1.000000 0.000000 0.000000
vn 1.000000 0.000000 0.000000
vn 1.000000 0.000000 0.000000
vn 1.000000 0.000000 0.000000
vn -1.000000 0.000000 0.000000
vn -1.000000 0.000000 0.000000
vn -1.000000 0.000000 0.000000
vn -1.000000 0.000000 0.000000
s off
g polySurface10 wall_4
usemtl blinn1SG
f 18/1/1 19/2/2 12/3/3 3/4/4
f 3/5/5 12/6/6 9/7/7 5/8/8
f 5/9/9 9/10/10 24/11/11 17/12/12
f 7/13/13 10/14/14 11/15/15 1/16/16
f 21/17/17 22/18/18 6/19/19 4/20/20
f 17/12/21 18/1/22 3/4/23 5/9/24
f 9/10/25 13/21/26 23/22/27 24/11/28
f 12/3/29 19/2/30 20/23/31 16/24/32
f 9/7/33 12/6/34 16/25/35 13/26/36
f 13/21/37 6/19/38 22/18/39 23/22/40
f 15/27/41 14/28/42 8/29/43 2/30/44
f 16/24/45 20/23/46 21/17/47 4/20/48
f 13/26/49 16/25/50 4/31/51 6/32/52
f 7/13/53 1/16/54 18/1/55 17/12/56
f 1/16/57 11/15/58 19/2/59 18/1/60
f 21/17/61 20/23/62 15/27/63 2/30/64
f 2/30/65 8/29/66 22/18/67 21/17/68
f 23/22/69 22/18/70 8/29/71 14/28/72
f 17/12/73 24/11/74 10/14/75 7/13/76
f 20/23/77 19/2/78 24/11/79 23/22/80
f 19/2/81 11/15/82 10/14/83 24/11/84
f 23/22/85 14/28/86 15/27/87 20/23/88
